<?xml version="1.0" encoding="utf-8"?>
<!-- Generator: Adobe Illustrator 28.3.0, SVG Export Plug-In . SVG Version: 6.00 Build 0)  -->
<svg version="1.1" id="Layer_1" xmlns="http://www.w3.org/2000/svg" xmlns:xlink="http://www.w3.org/1999/xlink" x="0px" y="0px"
	 viewBox="0 0 198.3 113.7" style="enable-background:new 0 0 198.3 113.7;" xml:space="preserve">
<style type="text/css">
	.st0{fill:none;}
	.st1{fill:#FFFFFF;}
	
		.st2{clip-path:url(#SVGID_00000102530729670520901970000014238460078145953946_);fill:none;stroke:#B0B0B0;stroke-width:0.8;stroke-linecap:square;stroke-linejoin:round;}
	.st3{stroke:#000000;stroke-width:0.8;stroke-linejoin:round;}
	
		.st4{clip-path:url(#SVGID_00000155828405685156837690000008753921367403884957_);fill:none;stroke:#B0B0B0;stroke-width:0.8;stroke-linecap:square;stroke-linejoin:round;}
	
		.st5{clip-path:url(#SVGID_00000071532533670724053280000012794155995702260142_);fill:none;stroke:#B0B0B0;stroke-width:0.8;stroke-linecap:square;stroke-linejoin:round;}
	
		.st6{clip-path:url(#SVGID_00000007386994531013735230000005733222901874360480_);fill:none;stroke:#B0B0B0;stroke-width:0.8;stroke-linecap:square;stroke-linejoin:round;}
	.st7{stroke:#000000;stroke-width:0.6;stroke-linejoin:round;}
	
		.st8{clip-path:url(#SVGID_00000165226887465031751090000017791382342494010556_);fill:none;stroke:#B0B0B0;stroke-width:0.8;stroke-linecap:square;stroke-linejoin:round;}
	
		.st9{clip-path:url(#SVGID_00000075880381441846742950000012374317510614568377_);fill:none;stroke:#B0B0B0;stroke-width:0.8;stroke-linecap:square;stroke-linejoin:round;}
	
		.st10{clip-path:url(#SVGID_00000047740712905663518210000000453461244708829330_);fill:none;stroke:#B0B0B0;stroke-width:0.8;stroke-linecap:square;stroke-linejoin:round;}
	
		.st11{clip-path:url(#SVGID_00000140732807204339427920000011115335268263890086_);fill:none;stroke:#B0B0B0;stroke-width:0.8;stroke-linecap:square;stroke-linejoin:round;}
	
		.st12{clip-path:url(#SVGID_00000170258040545481441710000016163415481672393398_);fill:none;stroke:#1F77B4;stroke-width:1.5;stroke-linejoin:round;}
	
		.st13{clip-path:url(#SVGID_00000000199705645538388090000013728270641428724656_);fill:none;stroke:#1F77B4;stroke-width:1.5;stroke-linejoin:round;}
	
		.st14{clip-path:url(#SVGID_00000033350014879491496250000002130787759902279308_);fill:none;stroke:#1F77B4;stroke-width:1.5;stroke-linejoin:round;}
	
		.st15{clip-path:url(#SVGID_00000081635871939708646160000013542928578710444970_);fill:none;stroke:#1F77B4;stroke-width:1.5;stroke-linejoin:round;}
	
		.st16{clip-path:url(#SVGID_00000106140748097235246310000014991053177315668633_);fill:none;stroke:#FF7F0E;stroke-width:1.5;stroke-linejoin:round;}
	
		.st17{clip-path:url(#SVGID_00000053506256216782906430000005037117147696561537_);fill:none;stroke:#FF7F0E;stroke-width:1.5;stroke-linejoin:round;}
	
		.st18{clip-path:url(#SVGID_00000013895491629365777550000006191824484856229818_);fill:none;stroke:#FF7F0E;stroke-width:1.5;stroke-linejoin:round;}
	
		.st19{clip-path:url(#SVGID_00000138555901256413109670000016914516001206407836_);fill:none;stroke:#FF7F0E;stroke-width:1.5;stroke-linejoin:round;}
	
		.st20{clip-path:url(#SVGID_00000068658464210706596950000018084983122190538421_);fill:none;stroke:#1F77B4;stroke-width:1.5;stroke-linejoin:round;stroke-dasharray:9.6,2.4,1.5,2.4;}
	.st21{clip-path:url(#SVGID_00000180325361700336735820000014058657307924849067_);}
	.st22{fill:#1F77B4;stroke:#1F77B4;stroke-linejoin:round;}
	
		.st23{clip-path:url(#SVGID_00000114072451049982242250000014309453141940758151_);fill:none;stroke:#FF7F0E;stroke-width:1.5;stroke-linejoin:round;stroke-dasharray:9.6,2.4,1.5,2.4;}
	.st24{clip-path:url(#SVGID_00000029005630966684268250000016568583549093867904_);}
	.st25{fill:#FF7F0E;stroke:#FF7F0E;stroke-linejoin:round;}
	.st26{fill:none;stroke:#000000;stroke-width:0.8;stroke-linecap:square;}
	.st27{opacity:0.8;fill:#FFFFFF;stroke:#CCCCCC;enable-background:new    ;}
	.st28{fill:none;stroke:#1F77B4;stroke-width:1.5;stroke-linejoin:round;}
	.st29{fill:none;stroke:#1F77B4;stroke-width:1.5;stroke-linejoin:round;stroke-dasharray:9.6,2.4,1.5,2.4;}
	.st30{fill:none;stroke:#FF7F0E;stroke-width:1.5;stroke-linejoin:round;}
	.st31{fill:none;stroke:#FF7F0E;stroke-width:1.5;stroke-linejoin:round;stroke-dasharray:9.6,2.4,1.5,2.4;}
</style>
<g id="patch_1">
	<path class="st0" d="M0,113.7h198.3V0H0V113.7z"/>
</g>
<g id="patch_2">
	<path class="st1" d="M27,87.3h167.4V5.8H27V87.3z"/>
</g>
<g id="matplotlib.axis_1">
	<g id="xtick_1">
		<g id="line2d_1">
			<g>
				<defs>
					<rect id="SVGID_1_" x="27" y="5.8" width="167.4" height="81.5"/>
				</defs>
				<clipPath id="SVGID_00000086668568191792460920000015404939190293353875_">
					<use xlink:href="#SVGID_1_"  style="overflow:visible;"/>
				</clipPath>
				
					<path style="clip-path:url(#SVGID_00000086668568191792460920000015404939190293353875_);fill:none;stroke:#B0B0B0;stroke-width:0.8;stroke-linecap:square;stroke-linejoin:round;" d="
					M34.6,87.3V5.8"/>
			</g>
		</g>
		<g id="line2d_2">
			<g>
				<g>
					<path id="m38f3ea6ed0" class="st3" d="M34.6,87.3v3.5"/>
				</g>
			</g>
		</g>
		<g id="text_1">
			<g transform="translate(29.049091 106.96375) scale(0.08 -0.08)">
				<g transform="translate(0 0.184375)">
					<path id="FreeSerif-31" d="M18.3,149.6c-1.2,0-3.6-0.7-7.2-2.2v1.4l18,9.1l0.8-0.2v-60c0-2.4,0.6-4,1.8-4.7
						c1.2-0.7,3.8-1.1,7.7-1.2v-1.5H11.8v1.5c3.7,0.1,6.3,0.7,7.5,1.6c1.3,1,2,3,2,6.2v45.3C21.3,148,20.3,149.6,18.3,149.6z"/>
				</g>
				<g transform="translate(49.999985 0.184375)">
					<path id="FreeSerif-30" d="M91.4,98.5c-4.1-6.4-9.6-9.6-16.4-9.6c-6.8,0-12.3,3.3-16.4,9.8c-4.1,6.5-6.2,14.9-6.2,25.2
						c0,9.7,2.1,17.8,6.2,24.2c4.1,6.5,9.7,9.8,16.8,9.8c6.5,0,11.9-3.2,16-9.6c4.1-6.4,6.2-14.7,6.2-25
						C97.6,113.1,95.5,104.9,91.4,98.5z M75.1,155.3c-8.7,0-13.1-10.8-13.1-32.3c0-21,4.3-31.5,13-31.5s13,10.5,13,31.6
						c0,10.5-1.1,18.5-3.3,24C82.5,152.5,79.3,155.3,75.1,155.3z"/>
				</g>
				<g transform="translate(100.787469 31.684375) scale(0.7)">
					<path id="FreeSerif-32" d="M103,155.2c0.2,1.1,0.5,2,0.7,2.8c0.2,0.8,0.7,2,1.5,3.5c0.8,1.5,1.6,2.8,2.6,3.8c1,1,2.3,1.9,4,2.7
						c1.7,0.8,3.6,1.2,5.8,1.2c3.6,0,6.7-1.2,9.2-3.6c2.5-2.4,3.8-5.3,3.8-8.8c0-5.3-3-11-9-17.3l-11.8-12.3h16.7
						c1.6,0,2.8,0.3,3.5,0.8s1.8,1.8,3.1,3.8l0.9-0.3l-3.9-9.6h-27.3v0.8l12.5,13.2c6.1,6.4,9.1,12.5,9.1,18.2
						c0,2.9-0.9,5.3-2.7,7.1c-1.8,1.8-4.2,2.7-7.1,2.7c-2.4,0-4.4-0.7-5.9-2c-1.5-1.3-2.9-3.7-4.3-7.1L103,155.2z"/>
				</g>
			</g>
		</g>
	</g>
	<g id="xtick_2">
		<g id="line2d_3">
			<g>
				<defs>
					<rect id="SVGID_00000136392566889225705660000011842989739757987248_" x="27" y="5.8" width="167.4" height="81.5"/>
				</defs>
				<clipPath id="SVGID_00000173868681533547298890000008775325383935387526_">
					<use xlink:href="#SVGID_00000136392566889225705660000011842989739757987248_"  style="overflow:visible;"/>
				</clipPath>
				
					<path style="clip-path:url(#SVGID_00000173868681533547298890000008775325383935387526_);fill:none;stroke:#B0B0B0;stroke-width:0.8;stroke-linecap:square;stroke-linejoin:round;" d="
					M85.3,87.3V5.8"/>
			</g>
		</g>
		<g id="line2d_4">
			<g>
				<g>
					<path id="m38f3ea6ed0_00000160175209070312233310000013359436570205001638_" class="st3" d="M85.3,87.3v3.5"/>
				</g>
			</g>
		</g>
		<g id="text_2">
			<g transform="translate(79.776364 106.96375) scale(0.08 -0.08)">
				<g transform="translate(0 0.184375)">
					<path id="FreeSerif-31_00000111159791600016954100000017075870036719523490_" d="M18.3,149.6c-1.2,0-3.6-0.7-7.2-2.2v1.4
						l18,9.1l0.8-0.2v-60c0-2.4,0.6-4,1.8-4.7c1.2-0.7,3.8-1.1,7.7-1.2v-1.5H11.8v1.5c3.7,0.1,6.3,0.7,7.5,1.6c1.3,1,2,3,2,6.2v45.3
						C21.3,148,20.3,149.6,18.3,149.6z"/>
				</g>
				<g transform="translate(49.999985 0.184375)">
					<path id="FreeSerif-30_00000116226779096273923890000015159669347371561870_" d="M91.4,98.5c-4.1-6.4-9.6-9.6-16.4-9.6
						s-12.3,3.3-16.4,9.8c-4.1,6.5-6.2,14.9-6.2,25.2c0,9.7,2.1,17.8,6.2,24.2c4.1,6.5,9.7,9.8,16.8,9.8c6.5,0,11.9-3.2,16-9.6
						c4.1-6.4,6.2-14.7,6.2-25C97.6,113.1,95.5,104.9,91.4,98.5z M75.1,155.3c-8.7,0-13.1-10.8-13.1-32.3c0-21,4.3-31.5,13-31.5
						s13,10.5,13,31.6c0,10.5-1.1,18.5-3.3,24C82.5,152.5,79.3,155.3,75.1,155.3z"/>
				</g>
				<g transform="translate(100.787469 31.684375) scale(0.7)">
					<path id="FreeSerif-33" d="M106.5,127.2c1.1,0,2.7-0.7,4.8-2c2.1-1.3,4-2,5.6-2c2.6,0,4.7,1,6.5,3c1.8,2,2.7,4.5,2.7,7.4
						c0,1.8-0.3,3.4-1,4.8c-0.6,1.4-1.4,2.5-2.4,3.2c-1,0.8-2.1,1.4-3.5,1.9c-1.3,0.5-2.6,0.8-3.8,1c-1.2,0.1-2.5,0.2-3.8,0.2v0.9
						c1.6,0.6,3,1.1,4.1,1.6c1.1,0.5,2.3,1.3,3.6,2.2c1.3,0.9,2.2,2,2.9,3.3c0.7,1.3,1,2.8,1,4.5c0,2.2-0.7,4-2.1,5.4
						c-1.4,1.4-3.3,2.1-5.6,2.1c-2.2,0-4.1-0.6-5.8-1.8c-1.7-1.2-3.2-3.1-4.6-5.6l-1,0.3c1.2,3.3,2.9,6,4.9,8.1s5,3.2,8.9,3.2
						c3.2,0,5.8-0.9,7.9-2.7c2-1.8,3.1-4.1,3.1-6.9c0-1.9-0.5-3.6-1.5-5.1c-1-1.4-2.7-3-5.1-4.6c2.8-1.2,5-2.8,6.6-4.6
						c1.6-1.9,2.4-4.6,2.4-8.1c0-5-1.8-8.9-5.5-11.9c-3.7-3-8.3-4.4-13.8-4.4c-2.4,0-4.3,0.4-5.8,1.1c-1.4,0.7-2.1,1.7-2.1,2.9
						c0,0.8,0.2,1.3,0.7,1.8C105,127,105.7,127.2,106.5,127.2z"/>
				</g>
			</g>
		</g>
	</g>
	<g id="xtick_3">
		<g id="line2d_5">
			<g>
				<defs>
					<rect id="SVGID_00000173136125036656747250000012781657698089461180_" x="27" y="5.8" width="167.4" height="81.5"/>
				</defs>
				<clipPath id="SVGID_00000150791592199549726890000017182652060425591202_">
					<use xlink:href="#SVGID_00000173136125036656747250000012781657698089461180_"  style="overflow:visible;"/>
				</clipPath>
				
					<path style="clip-path:url(#SVGID_00000150791592199549726890000017182652060425591202_);fill:none;stroke:#B0B0B0;stroke-width:0.8;stroke-linecap:square;stroke-linejoin:round;" d="
					M136.1,87.3V5.8"/>
			</g>
		</g>
		<g id="line2d_6">
			<g>
				<g>
					<path id="m38f3ea6ed0_00000073697219304490670710000013392605692292246680_" class="st3" d="M136.1,87.3v3.5"/>
				</g>
			</g>
		</g>
		<g id="text_3">
			<g transform="translate(130.503636 106.96375) scale(0.08 -0.08)">
				<g transform="translate(0 0.184375)">
					<path id="FreeSerif-31_00000133518650896405104310000010657659701713554875_" d="M18.3,149.6c-1.2,0-3.6-0.7-7.2-2.2v1.4
						l18,9.1l0.8-0.2v-60c0-2.4,0.6-4,1.8-4.7c1.2-0.7,3.8-1.1,7.7-1.2v-1.5H11.8v1.5c3.7,0.1,6.3,0.7,7.5,1.6c1.3,1,2,3,2,6.2v45.3
						C21.3,148,20.3,149.6,18.3,149.6z"/>
				</g>
				<g transform="translate(49.999985 0.184375)">
					<path id="FreeSerif-30_00000008119180874123408050000007422006199048944052_" d="M91.4,98.5c-4.1-6.4-9.6-9.6-16.4-9.6
						s-12.3,3.3-16.4,9.8c-4.1,6.5-6.2,14.9-6.2,25.2c0,9.7,2.1,17.8,6.2,24.2c4.1,6.5,9.7,9.8,16.8,9.8c6.5,0,11.9-3.2,16-9.6
						c4.1-6.4,6.2-14.7,6.2-25C97.6,113.1,95.5,104.9,91.4,98.5z M75.1,155.3c-8.7,0-13.1-10.8-13.1-32.3c0-21,4.3-31.5,13-31.5
						s13,10.5,13,31.6c0,10.5-1.1,18.5-3.3,24C82.5,152.5,79.3,155.3,75.1,155.3z"/>
				</g>
				<g transform="translate(100.787469 31.684375) scale(0.7)">
					<path id="FreeSerif-34" d="M133.8,137.9v-4.5h-7.1v-11.7h-5.4v11.7h-19.7v4.5l22,31.1h3.1v-31.1H133.8z M121.2,137.9v24
						l-16.8-24H121.2z"/>
				</g>
			</g>
		</g>
	</g>
	<g id="xtick_4">
		<g id="line2d_7">
			<g>
				<defs>
					<rect id="SVGID_00000128474533890231976560000006865681445505876371_" x="27" y="5.8" width="167.4" height="81.5"/>
				</defs>
				<clipPath id="SVGID_00000128483423628415379300000008736545536777789835_">
					<use xlink:href="#SVGID_00000128474533890231976560000006865681445505876371_"  style="overflow:visible;"/>
				</clipPath>
				
					<path style="clip-path:url(#SVGID_00000128483423628415379300000008736545536777789835_);fill:none;stroke:#B0B0B0;stroke-width:0.8;stroke-linecap:square;stroke-linejoin:round;" d="
					M186.8,87.3V5.8"/>
			</g>
		</g>
		<g id="line2d_8">
			<g>
				<g>
					<path id="m38f3ea6ed0_00000179630539835626158900000009967048639805201554_" class="st3" d="M186.8,87.3v3.5"/>
				</g>
			</g>
		</g>
		<g id="text_4">
			<g transform="translate(181.230909 106.96375) scale(0.08 -0.08)">
				<g transform="translate(0 0.342188)">
					<path id="FreeSerif-31_00000027590319820956837520000015428631219452895662_" d="M18.3,149.7c-1.2,0-3.6-0.7-7.2-2.2v1.4
						l18,9.1l0.8-0.2v-60c0-2.4,0.6-4,1.8-4.7c1.2-0.7,3.8-1.1,7.7-1.2v-1.5H11.8v1.5c3.7,0.1,6.3,0.7,7.5,1.6c1.3,1,2,3,2,6.2V145
						C21.3,148.2,20.3,149.7,18.3,149.7z"/>
				</g>
				<g transform="translate(49.999985 0.342188)">
					<path id="FreeSerif-30_00000166668104091554664910000012295747272815925164_" d="M91.4,98.6C87.3,92.2,81.8,89,75,89
						s-12.3,3.3-16.4,9.8c-4.1,6.5-6.2,14.9-6.2,25.2c0,9.7,2.1,17.8,6.2,24.3c4.1,6.5,9.7,9.8,16.8,9.8c6.5,0,11.9-3.2,16-9.6
						c4.1-6.4,6.2-14.7,6.2-25C97.6,113.3,95.5,105,91.4,98.6z M75.1,155.4c-8.7,0-13.1-10.8-13.1-32.3c0-21,4.3-31.5,13-31.5
						s13,10.5,13,31.6c0,10.5-1.1,18.5-3.3,24C82.5,152.7,79.3,155.4,75.1,155.4z"/>
				</g>
				<g transform="translate(100.787469 31.842188) scale(0.7)">
					<path id="FreeSerif-35" d="M125.8,135.5c0,2.5-0.6,4.7-1.7,6.6c-1.1,1.9-2.4,3.4-4,4.5c-1.6,1-3.3,1.9-5.2,2.6
						c-1.9,0.7-3.6,1.1-5,1.3s-2.7,0.3-3.8,0.3c-0.6,0-0.8,0.2-0.8,0.6c0,0.1,0,0.3,0.1,0.3l7.6,16.6h14.6c0.8,0,1.3,0.1,1.8,0.4
						c0.4,0.2,0.9,0.7,1.4,1.5l0.6-0.5l-2.7-6.2c-0.2-0.4-0.7-0.6-1.6-0.6h-13.7l-2.9-5.9c6.8-1.2,11.9-3.2,15.2-5.9
						c3.3-2.7,5-6.7,5-12c0-2.8-0.4-5.2-1.3-7.4c-0.9-2.1-2-3.9-3.3-5.2c-1.3-1.3-2.9-2.4-4.6-3.2c-1.8-0.8-3.4-1.4-5-1.7
						c-1.6-0.3-3.2-0.5-4.9-0.5c-2.6,0-4.7,0.4-6.2,1.2c-1.5,0.8-2.3,1.8-2.3,3.2c0,1.7,1,2.6,3,2.6c1.3,0,3-0.7,5.1-2.2
						c2.1-1.4,3.7-2.2,4.9-2.2c2.8,0,5.1,1.2,6.9,3.5C124.8,129.3,125.8,132.1,125.8,135.5z"/>
				</g>
			</g>
		</g>
	</g>
	<g id="xtick_5">
		<g id="line2d_9">
			<g>
				<g>
					<path id="mefd1eefaa8" class="st7" d="M29.7,87.3v2"/>
				</g>
			</g>
		</g>
	</g>
	<g id="xtick_6">
		<g id="line2d_10">
			<g>
				<g>
					<path id="mefd1eefaa8_00000081627399637061815450000009750296540013213880_" class="st7" d="M32.3,87.3v2"/>
				</g>
			</g>
		</g>
	</g>
	<g id="xtick_7">
		<g id="line2d_11">
			<g>
				<g>
					<path id="mefd1eefaa8_00000073688469060777885120000015734992120102031020_" class="st7" d="M49.9,87.3v2"/>
				</g>
			</g>
		</g>
	</g>
	<g id="xtick_8">
		<g id="line2d_12">
			<g>
				<g>
					<path id="mefd1eefaa8_00000142164514751185841780000002087584874124899727_" class="st7" d="M58.8,87.3v2"/>
				</g>
			</g>
		</g>
	</g>
	<g id="xtick_9">
		<g id="line2d_13">
			<g>
				<g>
					<path id="mefd1eefaa8_00000141435074060800382430000003340777069209634977_" class="st7" d="M65.1,87.3v2"/>
				</g>
			</g>
		</g>
	</g>
	<g id="xtick_10">
		<g id="line2d_14">
			<g>
				<g>
					<path id="mefd1eefaa8_00000005257042936778149480000016092096393818095513_" class="st7" d="M70.1,87.3v2"/>
				</g>
			</g>
		</g>
	</g>
	<g id="xtick_11">
		<g id="line2d_15">
			<g>
				<g>
					<path id="mefd1eefaa8_00000149355696876856724460000013783193529725892743_" class="st7" d="M74.1,87.3v2"/>
				</g>
			</g>
		</g>
	</g>
	<g id="xtick_12">
		<g id="line2d_16">
			<g>
				<g>
					<path id="mefd1eefaa8_00000013873731322612236750000010146512181662607512_" class="st7" d="M77.5,87.3v2"/>
				</g>
			</g>
		</g>
	</g>
	<g id="xtick_13">
		<g id="line2d_17">
			<g>
				<g>
					<path id="mefd1eefaa8_00000132069035595288913220000014670820083880242314_" class="st7" d="M80.4,87.3v2"/>
				</g>
			</g>
		</g>
	</g>
	<g id="xtick_14">
		<g id="line2d_18">
			<g>
				<g>
					<path id="mefd1eefaa8_00000154385073304362725430000003951798452982024873_" class="st7" d="M83,87.3v2"/>
				</g>
			</g>
		</g>
	</g>
	<g id="xtick_15">
		<g id="line2d_19">
			<g>
				<g>
					<path id="mefd1eefaa8_00000093137078521060423500000012944355817618770322_" class="st7" d="M100.6,87.3v2"/>
				</g>
			</g>
		</g>
	</g>
	<g id="xtick_16">
		<g id="line2d_20">
			<g>
				<g>
					<path id="mefd1eefaa8_00000034085642576125210210000014372394162961580724_" class="st7" d="M109.5,87.3v2"/>
				</g>
			</g>
		</g>
	</g>
	<g id="xtick_17">
		<g id="line2d_21">
			<g>
				<g>
					<path id="mefd1eefaa8_00000064335200067688661900000011378628044849529752_" class="st7" d="M115.9,87.3v2"/>
				</g>
			</g>
		</g>
	</g>
	<g id="xtick_18">
		<g id="line2d_22">
			<g>
				<g>
					<path id="mefd1eefaa8_00000132796415246641409840000011089367539533140100_" class="st7" d="M120.8,87.3v2"/>
				</g>
			</g>
		</g>
	</g>
	<g id="xtick_19">
		<g id="line2d_23">
			<g>
				<g>
					<path id="mefd1eefaa8_00000148645931111420884930000012114380809617472915_" class="st7" d="M124.8,87.3v2"/>
				</g>
			</g>
		</g>
	</g>
	<g id="xtick_20">
		<g id="line2d_24">
			<g>
				<g>
					<path id="mefd1eefaa8_00000051370088011285653940000005190798615390602662_" class="st7" d="M128.2,87.3v2"/>
				</g>
			</g>
		</g>
	</g>
	<g id="xtick_21">
		<g id="line2d_25">
			<g>
				<g>
					<path id="mefd1eefaa8_00000161591074052969761750000008997679013913638815_" class="st7" d="M131.1,87.3v2"/>
				</g>
			</g>
		</g>
	</g>
	<g id="xtick_22">
		<g id="line2d_26">
			<g>
				<g>
					<path id="mefd1eefaa8_00000060010628739617183330000001843182910628544918_" class="st7" d="M133.7,87.3v2"/>
				</g>
			</g>
		</g>
	</g>
	<g id="xtick_23">
		<g id="line2d_27">
			<g>
				<g>
					<path id="mefd1eefaa8_00000039133623500523496110000011221482783733887676_" class="st7" d="M151.3,87.3v2"/>
				</g>
			</g>
		</g>
	</g>
	<g id="xtick_24">
		<g id="line2d_28">
			<g>
				<g>
					<path id="mefd1eefaa8_00000139999917962525192490000009523399559791341728_" class="st7" d="M160.3,87.3v2"/>
				</g>
			</g>
		</g>
	</g>
	<g id="xtick_25">
		<g id="line2d_29">
			<g>
				<g>
					<path id="mefd1eefaa8_00000021082242505439913690000008914983315621478529_" class="st7" d="M166.6,87.3v2"/>
				</g>
			</g>
		</g>
	</g>
	<g id="xtick_26">
		<g id="line2d_30">
			<g>
				<g>
					<path id="mefd1eefaa8_00000019649767816967530760000014776823765912308870_" class="st7" d="M171.5,87.3v2"/>
				</g>
			</g>
		</g>
	</g>
	<g id="xtick_27">
		<g id="line2d_31">
			<g>
				<g>
					<path id="mefd1eefaa8_00000052073377016780750430000011496367060248395408_" class="st7" d="M175.5,87.3v2"/>
				</g>
			</g>
		</g>
	</g>
	<g id="xtick_28">
		<g id="line2d_32">
			<g>
				<g>
					<path id="mefd1eefaa8_00000078025741960968005780000006261756100154736535_" class="st7" d="M178.9,87.3v2"/>
				</g>
			</g>
		</g>
	</g>
	<g id="xtick_29">
		<g id="line2d_33">
			<g>
				<g>
					<path id="mefd1eefaa8_00000044156237634177465970000001557904822252448931_" class="st7" d="M181.9,87.3v2"/>
				</g>
			</g>
		</g>
	</g>
	<g id="xtick_30">
		<g id="line2d_34">
			<g>
				<g>
					<path id="mefd1eefaa8_00000181804641757071199390000017056666722323367583_" class="st7" d="M184.5,87.3v2"/>
				</g>
			</g>
		</g>
	</g>
	<g id="text_5">
		<g transform="translate(83.926875 118.16375) scale(0.08 -0.08)">
			<g>
				<path id="FreeSerif-44" d="M68.4,123.5c0-3-0.3-5.9-1-8.8c-0.7-2.9-1.9-5.8-3.7-8.9c-1.8-3.1-4.1-5.7-6.9-7.9
					c-2.8-2.2-6.5-4.1-11.2-5.5c-4.6-1.5-9.9-2.2-15.7-2.2H1.5V92c3.8,0.3,6.2,0.9,7.2,2c1,1.1,1.5,3.4,1.5,7v44.4
					c0,3.7-0.5,6-1.5,7c-1,1-3.4,1.7-7.3,2v1.9h27c6.1,0,11.5-0.7,16.3-2.1c4.8-1.4,8.6-3.1,11.5-5.3c2.9-2.2,5.3-4.7,7.2-7.7
					c1.9-3,3.2-5.9,3.9-8.8C68.1,129.6,68.4,126.6,68.4,123.5z M57.5,122.8c0,2.9-0.3,5.6-0.9,8.2c-0.6,2.6-1.6,5.3-3,8
					c-1.5,2.7-3.4,5-5.7,6.9c-2.3,1.9-5.4,3.5-9.2,4.8c-3.8,1.2-8.1,1.9-13,1.9c-2.1,0-3.5-0.3-4.2-0.8s-1-1.6-1-3.1V97.9
					c0-1.6,0.4-2.7,1.1-3.2c0.7-0.6,2.1-0.8,4.1-0.8C46.9,93.8,57.5,103.5,57.5,122.8z"/>
			</g>
			<g>
				<path id="FreeSerif-6f" d="M96.5,136.1c6.4,0,11.7-2.1,15.8-6.4c4.1-4.3,6.2-9.7,6.2-16.2c0-6.9-2.1-12.7-6.4-17.4
					c-4.3-4.7-9.5-7-15.8-7c-6.3,0-11.5,2.2-15.6,6.8c-4.2,4.5-6.2,10.1-6.2,16.8c0,6.9,2,12.5,6.1,16.9
					C84.6,133.9,90,136.1,96.5,136.1z M83.4,117.6c0-7.1,1.3-13.2,3.9-18.2c2.6-5,6-7.5,10.2-7.5c3.7,0,6.7,1.6,8.8,4.8
					c2.1,3.2,3.2,7.6,3.2,13.3c0,6.9-1.3,12.5-4,16.8c-2.7,4.3-6.1,6.5-10.3,6.5c-3.5,0-6.4-1.4-8.5-4.3
					C84.5,126.1,83.4,122.3,83.4,117.6z"/>
			</g>
			<g>
				<path id="FreeSerif-6d" d="M121.3,129.9v1.7c4.8,1.3,9.5,2.8,14,4.5l0.7-0.2v-7.5c4.1,3.1,7.2,5.2,9.2,6.2s4.1,1.5,6.3,1.5
					c5.3,0,8.8-2.8,10.6-8.4c5.2,5.6,10.6,8.4,16.3,8.4c7.7,0,11.6-5.9,11.6-17.8V97.7c0-3.7,1.4-5.7,4.3-5.9l2.6-0.2v-1.5H175v1.5
					c2.9,0.3,4.8,0.9,5.5,1.7s1.1,2.6,1.1,5.5v21.1c0,4.1-0.5,7-1.6,8.6c-1.1,1.6-3,2.4-5.9,2.4c-4.4,0-8-2-10.9-6.1V99.6
					c0-3.1,0.5-5.2,1.4-6.3c1-1.1,2.9-1.6,5.8-1.7v-1.5H148v1.5c2.9,0.2,4.7,0.7,5.5,1.6c0.8,0.9,1.2,2.7,1.2,5.5v21.7
					c0,7-2.2,10.5-6.6,10.5c-1.9,0-3.9-0.5-6.2-1.4c-2.3-0.9-4.2-2.4-5.5-4.5V96.8c0-1.9,0.5-3.3,1.4-4c0.9-0.7,2.7-1.1,5.4-1.2
					v-1.5H121v1.5c2.8,0.1,4.7,0.6,5.6,1.5c0.9,0.9,1.4,2.8,1.4,5.5v25.3c0,2.4-0.2,4.1-0.8,5c-0.5,0.9-1.4,1.4-2.8,1.4
					C123.5,130.3,122.4,130.2,121.3,129.9z"/>
			</g>
			<g>
				<path id="FreeSerif-61" d="M199.9,99.8c0,1.2,0.1,2.3,0.4,3.3c0.3,1,0.7,2,1.4,2.9c0.7,0.9,1.3,1.7,1.9,2.5
					c0.6,0.7,1.5,1.5,2.7,2.2c1.2,0.8,2.2,1.4,3,1.9c0.8,0.5,2,1.1,3.7,1.8c1.6,0.7,2.9,1.2,3.8,1.6s2.2,0.9,4.1,1.6
					c1.9,0.7,3.2,1.3,4.1,1.6v6.1c0,5.5-2.5,8.3-7.6,8.3c-2,0-3.7-0.5-5.1-1.5c-1.4-1-2.1-2.1-2.1-3.4c0-0.5,0.1-1.3,0.2-2.2
					s0.2-1.5,0.2-1.8c0-1.1-0.5-2.1-1.4-3c-0.9-0.8-1.9-1.2-3.1-1.2c-1.1,0-2.1,0.4-3,1.3c-0.9,0.9-1.3,1.9-1.3,3
					c0,3.1,1.6,5.8,4.8,8s7.2,3.2,12,3.2c5.5,0,9.2-1.3,11.3-4s3.1-6.7,3.1-12v-19.5c0-2.2,0.2-3.7,0.7-4.5s1.2-1.2,2.3-1.2
					c1.4,0,2.9,0.6,4.4,1.9v-2.6c-1.7-1.9-3.2-3.3-4.5-4s-2.8-1-4.5-1c-2.1,0-3.6,0.6-4.5,1.7s-1.6,3-1.9,5.6
					c-5.7-4.9-10.6-7.3-14.6-7.3c-3.1,0-5.6,1-7.5,3S199.9,96.7,199.9,99.8z M224.9,102.4v14.5c-6-2.2-10.2-4.3-12.6-6.4
					c-2.4-2.1-3.6-4.6-3.6-7.5c0-2.7,0.7-4.8,2-6.1s2.8-2,4.3-2c2.3,0,4.7,0.8,7.3,2.3c1.1,0.6,1.8,1.2,2.1,1.9
					S224.9,100.9,224.9,102.4z"/>
			</g>
			<g>
				<path id="FreeSerif-69" d="M246.6,129.4c-1.5,0-2.9-0.1-4.2-0.3v1.5c4.7,1.3,9.8,3.2,15.5,5.5l0.4-0.3v-35.5
					c0-3.6,0.4-5.9,1.2-6.9c0.8-1,2.9-1.6,6.1-1.8v-1.5H242v1.5c3.5,0.2,5.7,0.8,6.5,1.8c0.9,1,1.4,3.3,1.4,6.9v23.2
					c0,2.2-0.2,3.7-0.8,4.6C248.6,128.9,247.8,129.4,246.6,129.4z M253.2,158.4c1.5,0,2.7-0.5,3.7-1.5s1.5-2.2,1.5-3.6
					c0-1.5-0.5-2.7-1.5-3.7s-2.2-1.5-3.7-1.5c-1.4,0-2.6,0.5-3.5,1.5s-1.5,2.2-1.5,3.6c0,1.4,0.5,2.6,1.5,3.6
					S251.9,158.4,253.2,158.4z"/>
			</g>
			<g>
				<path id="FreeSerif-6e" d="M268.2,129.9v1.7c4.9,1.5,9.5,3,13.8,4.5l0.7-0.2V128c3.4,3.2,6.1,5.3,8,6.4c2,1.1,4.1,1.7,6.5,1.7
					c3.7,0,6.5-1.3,8.6-4c2.1-2.6,3.2-6.3,3.2-11V98.2c0-2.5,0.4-4.1,1.2-4.9s2.4-1.4,4.9-1.7v-1.5h-20.8v1.5c2.5,0.2,4.2,0.9,5.1,2
					s1.2,3.3,1.2,6.4v20.9c0,6.5-2.4,9.7-7.3,9.7c-1.7,0-3.2-0.4-4.6-1.2c-1.4-0.8-3.3-2.3-5.7-4.5V96.8c0-1.8,0.5-3.1,1.4-3.8
					c0.9-0.7,2.7-1.2,5.2-1.4v-1.5h-21.2v1.5c2.5,0.2,4.2,0.8,5,1.8s1.2,2.9,1.2,5.8v24.8c0,2.5-0.3,4.2-0.8,5
					c-0.5,0.9-1.5,1.4-2.9,1.4C269.6,130.3,268.7,130.2,268.2,129.9z"/>
			</g>
			<g>
				<path id="FreeSerif-20" d="M316.1,90.1"/>
			</g>
			<g>
				<path id="FreeSerif-53" d="M378.9,103.6c0,3.1-1.1,5.9-3.3,8.3c-2.2,2.4-4.9,4.5-8,6.2c-3.1,1.7-6.3,3.5-9.4,5.4
					c-3.1,1.8-5.7,4.2-7.9,7c-2.2,2.9-3.3,6.2-3.3,10c0,5.1,1.7,9.2,5.1,12.3c3.4,3.2,7.5,4.8,12.2,4.8c2.8,0,5.8-0.6,9.1-1.7
					c3.3-1.1,5.2-1.7,5.9-1.7c1.7,0,2.8,1.1,3.2,3.4h2.1l2.2-21.3h-2.5c-1.6,5.9-4.1,10.2-7.4,13c-3.3,2.8-6.9,4.2-10.9,4.2
					c-3.1,0-5.6-0.9-7.5-2.6c-1.9-1.7-2.9-4-2.9-6.7c0-2.7,1.1-5.2,3.4-7.6c2.3-2.4,6-5.1,11.3-8c6.6-3.5,11.4-7,14.3-10.5
					c2.9-3.4,4.4-7.2,4.4-11.3c0-5.1-2-9.5-5.9-13s-8.8-5.2-14.5-5.2c-3.3,0-6.7,0.6-10.2,1.7c-3.4,1.1-5.5,1.7-6.3,1.7
					c-0.7,0-1.4-0.3-1.9-1c-0.5-0.6-0.8-1.4-0.9-2.3h-2.2l-3,21.2h2.3c2.5-6.1,5.3-10.5,8.6-13.4c3.3-2.9,7.1-4.3,11.6-4.3
					c3.7,0,6.6,1,8.9,3.1C377.8,97.5,378.9,100.3,378.9,103.6z"/>
			</g>
			<g>
				<path id="FreeSerif-61_00000061432192463706174760000004273521393406320289_" d="M396.5,99.8c0,1.2,0.1,2.3,0.4,3.3
					c0.3,1,0.7,2,1.4,2.9c0.7,0.9,1.3,1.7,1.9,2.5c0.6,0.7,1.5,1.5,2.7,2.2c1.2,0.8,2.2,1.4,3,1.9c0.8,0.5,2,1.1,3.7,1.8
					c1.6,0.7,2.9,1.2,3.8,1.6c0.9,0.4,2.2,0.9,4.1,1.6c1.9,0.7,3.2,1.3,4.1,1.6v6.1c0,5.5-2.5,8.3-7.6,8.3c-2,0-3.7-0.5-5.1-1.5
					c-1.4-1-2.1-2.1-2.1-3.4c0-0.5,0.1-1.3,0.2-2.2c0.2-0.9,0.2-1.5,0.2-1.8c0-1.1-0.5-2.1-1.4-3c-0.9-0.8-1.9-1.2-3.1-1.2
					c-1.1,0-2.1,0.4-3,1.3c-0.9,0.9-1.3,1.9-1.3,3c0,3.1,1.6,5.8,4.8,8c3.2,2.2,7.2,3.2,12,3.2c5.5,0,9.2-1.3,11.3-4s3.1-6.7,3.1-12
					v-19.5c0-2.2,0.2-3.7,0.7-4.5s1.2-1.2,2.3-1.2c1.4,0,2.9,0.6,4.4,1.9v-2.6c-1.7-1.9-3.2-3.3-4.5-4c-1.3-0.7-2.8-1-4.5-1
					c-2.1,0-3.6,0.6-4.5,1.7s-1.6,3-1.9,5.6c-5.7-4.9-10.6-7.3-14.6-7.3c-3.1,0-5.6,1-7.5,3S396.5,96.7,396.5,99.8z M421.5,102.4
					v14.5c-6-2.2-10.2-4.3-12.6-6.4c-2.4-2.1-3.6-4.6-3.6-7.5c0-2.7,0.7-4.8,2-6.1c1.3-1.3,2.8-2,4.3-2c2.3,0,4.7,0.8,7.3,2.3
					c1.1,0.6,1.8,1.2,2.1,1.9C421.3,99.8,421.5,100.9,421.5,102.4z"/>
			</g>
			<g>
				<path id="FreeSerif-6d_00000018946764775550440620000018391718848820633005_" d="M438.8,129.9v1.7c4.8,1.3,9.5,2.8,14,4.5
					l0.7-0.2v-7.5c4.1,3.1,7.2,5.2,9.2,6.2s4.1,1.5,6.3,1.5c5.3,0,8.8-2.8,10.6-8.4c5.2,5.6,10.6,8.4,16.3,8.4
					c7.7,0,11.6-5.9,11.6-17.8V97.7c0-3.7,1.4-5.7,4.3-5.9l2.6-0.2v-1.5h-21.9v1.5c2.9,0.3,4.8,0.9,5.5,1.7c0.7,0.8,1.1,2.6,1.1,5.5
					v21.1c0,4.1-0.5,7-1.6,8.6c-1.1,1.6-3,2.4-5.9,2.4c-4.4,0-8-2-10.9-6.1V99.6c0-3.1,0.5-5.2,1.4-6.3c1-1.1,2.9-1.6,5.8-1.7v-1.5
					h-22.4v1.5c2.9,0.2,4.7,0.7,5.5,1.6c0.8,0.9,1.2,2.7,1.2,5.5v21.7c0,7-2.2,10.5-6.6,10.5c-1.9,0-3.9-0.5-6.2-1.4
					c-2.3-0.9-4.2-2.4-5.5-4.5V96.8c0-1.9,0.5-3.3,1.4-4c0.9-0.7,2.7-1.1,5.4-1.2v-1.5h-22.2v1.5c2.8,0.1,4.7,0.6,5.6,1.5
					c0.9,0.9,1.4,2.8,1.4,5.5v25.3c0,2.4-0.2,4.1-0.8,5c-0.5,0.9-1.4,1.4-2.8,1.4C441,130.3,439.9,130.2,438.8,129.9z"/>
			</g>
			<g>
				<path id="FreeSerif-70" d="M516.8,129.4v1.6c4.2,1.3,9,3,14.4,5.1l0.6-0.2v-7.7c4.3,5.3,9.1,7.9,14.4,7.9c4.9,0,8.9-2,12-6
					s4.7-9.1,4.7-15.3c0-7.3-2-13.4-6-18.3c-4-4.9-9-7.4-15-7.4c-2.1,0-3.9,0.3-5.4,0.9c-1.4,0.6-3,1.7-4.7,3.4V77.7
					c0-3.1,0.5-5.1,1.6-6c1.1-0.9,3.5-1.4,7.2-1.5v-1.8h-24.2v1.7c2.9,0.3,4.8,0.8,5.7,1.7s1.3,2.6,1.3,5.2v46.8
					c0,2.3-0.3,3.9-0.8,4.6c-0.5,0.7-1.6,1.1-3.3,1.1C518.2,129.5,517.4,129.5,516.8,129.4z M531.8,123.5V98.9
					c0-1.5,1.1-2.9,3.4-4.4c2.3-1.5,4.6-2.2,7-2.2c3.6,0,6.5,1.7,8.8,5.1c2.2,3.4,3.4,7.9,3.4,13.5c0,5.8-1.1,10.5-3.4,14
					c-2.2,3.5-5.2,5.2-9,5.2c-2.3,0-4.6-0.7-6.8-2.2S531.8,124.9,531.8,123.5z"/>
			</g>
			<g>
				<path id="FreeSerif-6c" d="M565.4,152.4v1.6c6.6,1.6,11.9,3.1,15.9,4.4l0.4-0.2V98.5c0-2.7,0.4-4.5,1.3-5.4
					c0.9-0.8,3-1.3,6.2-1.5v-1.5h-23.6v1.5c3.1,0.3,5.2,0.9,6.2,1.8c1,0.9,1.5,2.7,1.5,5.4v47.7c0,2.3-0.3,3.9-0.9,4.8
					s-1.7,1.3-3.3,1.3C567.8,152.6,566.5,152.5,565.4,152.4z"/>
			</g>
			<g>
				<path id="FreeSerif-65" d="M598.9,117.8c0.1-4.2,0.7-7.8,1.7-10.9c1-3,2.3-5.3,3.9-6.8c1.6-1.5,3.2-2.6,4.8-3.2
					c1.6-0.6,3.4-0.9,5.2-0.9c3.2,0,6,0.8,8.3,2.4c2.4,1.6,4.8,4.3,7.2,8.1l1.6-0.7c-2.1-5.4-4.9-9.5-8.6-12.4s-7.9-4.3-12.6-4.3
					c-5.7,0-10.3,2-13.7,6c-3.4,4-5,9.5-5,16.4c0,7.4,1.9,13.3,5.8,17.8c3.9,4.5,8.9,6.8,15.1,6.8c5.1,0,9-1.5,11.8-4.5
					s4.6-7.6,5.3-13.8H598.9z M599.1,121h20.4c-0.7,4.3-1.7,7.3-3.1,9c-1.4,1.7-3.6,2.5-6.7,2.5C603.7,132.5,600.2,128.7,599.1,121z
					"/>
			</g>
			<g>
				<path id="FreeSerif-73" d="M659.4,134.1c0.1,0,0.6,0.3,1.6,1h1.1l0.4-13.6H661c-1.1,4.5-2.5,7.6-4.2,9.5
					c-1.7,1.9-3.9,2.8-6.8,2.8c-2.3,0-4.1-0.6-5.6-1.9c-1.4-1.3-2.1-2.9-2.1-4.9c0-2.9,1.4-5.1,4.3-6.8l10.8-6.4
					c3-1.8,5.2-3.6,6.5-5.5c1.3-1.8,2-4,2-6.5c0-3.5-1.4-6.5-4.2-9c-2.8-2.5-6.1-3.8-10-3.8c-1.7,0-3.9,0.3-6.7,0.9
					c-2.8,0.6-4.5,0.9-5.2,0.9c-1,0-1.8-0.4-2.3-1.2h-1.3v15.6h1.6c1.1-4.7,2.3-8,3.8-9.9c2.1-2.7,5.1-4.1,8.9-4.1
					c2.5,0,4.5,0.6,6,1.9c1.5,1.3,2.2,3.1,2.2,5.3c0,3-1.7,5.5-5.2,7.5l-5.8,3.3c-4.3,2.4-7.3,4.7-9.1,6.9c-1.8,2.2-2.6,4.7-2.6,7.5
					c0,3.6,1.3,6.6,3.8,8.9c2.6,2.3,5.8,3.5,9.8,3.5c2.2,0,4.3-0.3,6.2-1C657.8,134.4,659,134.1,659.4,134.1z"/>
			</g>
		</g>
	</g>
</g>
<g id="ytick_1">
	<g id="line2d_35">
		<g>
			<defs>
				<rect id="SVGID_00000130612437327872174890000008203141584344392373_" x="27" y="5.8" width="167.4" height="81.5"/>
			</defs>
			<clipPath id="SVGID_00000008833866497292230380000001637374535475116177_">
				<use xlink:href="#SVGID_00000130612437327872174890000008203141584344392373_"  style="overflow:visible;"/>
			</clipPath>
			
				<path style="clip-path:url(#SVGID_00000008833866497292230380000001637374535475116177_);fill:none;stroke:#B0B0B0;stroke-width:0.8;stroke-linecap:square;stroke-linejoin:round;" d="
				M27,84.6h167.4"/>
		</g>
	</g>
	<g id="line2d_36">
		<g>
			<g>
				<path id="m5272ac8657" class="st3" d="M27,84.6h-3.5"/>
			</g>
		</g>
	</g>
	<g id="text_6">
		<g transform="translate(16 94.519535) scale(0.08 -0.08)">
			<g>
				<path id="FreeSerif-30_00000046331843988261745440000012273378371947986323_" d="M41.4,98.3c-4.1-6.4-9.6-9.6-16.4-9.6
					s-12.3,3.3-16.4,9.8c-4.1,6.5-6.2,14.9-6.2,25.2c0,9.7,2.1,17.8,6.2,24.3c4.1,6.5,9.7,9.7,16.8,9.7c6.5,0,11.9-3.2,16-9.6
					c4.1-6.4,6.2-14.7,6.2-25C47.6,112.9,45.5,104.7,41.4,98.3z M25.1,155.1c-8.7,0-13.1-10.8-13.1-32.3c0-21,4.3-31.5,13-31.5
					s13,10.5,13,31.6c0,10.5-1.1,18.5-3.3,24C32.5,152.3,29.3,155.1,25.1,155.1z"/>
			</g>
		</g>
	</g>
</g>
<g id="ytick_2">
	<g id="line2d_37">
		<g>
			<defs>
				<rect id="SVGID_00000106128957154712850350000015696981891523966888_" x="27" y="5.8" width="167.4" height="81.5"/>
			</defs>
			<clipPath id="SVGID_00000110454353424995263010000012383416446086749611_">
				<use xlink:href="#SVGID_00000106128957154712850350000015696981891523966888_"  style="overflow:visible;"/>
			</clipPath>
			
				<path style="clip-path:url(#SVGID_00000110454353424995263010000012383416446086749611_);fill:none;stroke:#B0B0B0;stroke-width:0.8;stroke-linecap:square;stroke-linejoin:round;" d="
				M27,63.8h167.4"/>
		</g>
	</g>
	<g id="line2d_38">
		<g>
			<g>
				<path id="m5272ac8657_00000176731092521735573310000002176947481290061696_" class="st3" d="M27,63.8h-3.5"/>
			</g>
		</g>
	</g>
	<g id="text_7">
		<g transform="translate(16 73.779427) scale(0.08 -0.08)">
			<g>
				<path id="FreeSerif-35_00000074420637014908700890000008876699449916266637_" d="M35.7,109.5c0,3.5-0.8,6.7-2.4,9.4
					c-1.6,2.7-3.5,4.9-5.7,6.4c-2.2,1.5-4.7,2.7-7.5,3.7c-2.8,1-5.2,1.6-7.2,1.9s-3.8,0.5-5.4,0.5c-0.8,0-1.2,0.3-1.2,0.8
					c0,0.2,0,0.4,0.1,0.5l10.9,23.7h20.9c1.1,0,1.9,0.2,2.5,0.5c0.6,0.3,1.3,1,2.1,2.1l0.9-0.7l-3.8-8.9c-0.3-0.6-1-0.9-2.3-0.9
					H18.1l-4.2-8.5c9.7-1.7,17-4.5,21.7-8.5c4.7-3.9,7.1-9.6,7.1-17.1c0-3.9-0.6-7.4-1.9-10.5c-1.2-3.1-2.8-5.5-4.7-7.4
					c-1.9-1.9-4.1-3.4-6.6-4.6c-2.5-1.2-4.9-2-7.2-2.5c-2.3-0.4-4.6-0.7-6.9-0.7c-3.7,0-6.7,0.6-8.9,1.7c-2.2,1.1-3.3,2.6-3.3,4.5
					c0,2.5,1.4,3.7,4.3,3.7c1.9,0,4.3-1,7.2-3.1c3-2.1,5.3-3.1,7-3.1c3.9,0,7.2,1.7,9.9,5C34.4,100.6,35.7,104.7,35.7,109.5z"/>
			</g>
		</g>
	</g>
</g>
<g id="ytick_3">
	<g id="line2d_39">
		<g>
			<defs>
				<rect id="SVGID_00000034074091455923733190000006145142470532971953_" x="27" y="5.8" width="167.4" height="81.5"/>
			</defs>
			<clipPath id="SVGID_00000033370771522717357370000015307846482534369954_">
				<use xlink:href="#SVGID_00000034074091455923733190000006145142470532971953_"  style="overflow:visible;"/>
			</clipPath>
			
				<path style="clip-path:url(#SVGID_00000033370771522717357370000015307846482534369954_);fill:none;stroke:#B0B0B0;stroke-width:0.8;stroke-linecap:square;stroke-linejoin:round;" d="
				M27,43.1h167.4"/>
		</g>
	</g>
	<g id="line2d_40">
		<g>
			<g>
				<path id="m5272ac8657_00000158726221950537361950000010555031539647556540_" class="st3" d="M27,43.1h-3.5"/>
			</g>
		</g>
	</g>
	<g id="text_8">
		<g transform="translate(12 53.039318) scale(0.08 -0.08)">
			<g>
				<path id="FreeSerif-31_00000010994749308929916130000008648994691857942166_" d="M18.3,149.4c-1.2,0-3.6-0.7-7.2-2.2v1.4l18,9.1
					l0.8-0.2v-60c0-2.4,0.6-4,1.8-4.7c1.2-0.7,3.8-1.1,7.7-1.2v-1.5H11.8v1.5c3.7,0.1,6.3,0.7,7.5,1.6c1.3,1,2,3,2,6.2v45.3
					C21.3,147.8,20.3,149.4,18.3,149.4z"/>
			</g>
			<g>
				<path id="FreeSerif-30_00000154391184561104941380000004203297672321304212_" d="M91.4,98.3c-4.1-6.4-9.6-9.6-16.4-9.6
					s-12.3,3.3-16.4,9.8c-4.1,6.5-6.2,14.9-6.2,25.2c0,9.7,2.1,17.8,6.2,24.3c4.1,6.5,9.7,9.8,16.8,9.8c6.5,0,11.9-3.2,16-9.6
					c4.1-6.4,6.2-14.7,6.2-25C97.6,112.9,95.5,104.7,91.4,98.3z M75.1,155.1c-8.7,0-13.1-10.8-13.1-32.3c0-21,4.3-31.5,13-31.5
					s13,10.5,13,31.6c0,10.5-1.1,18.5-3.3,24C82.5,152.3,79.3,155.1,75.1,155.1z"/>
			</g>
		</g>
	</g>
</g>
<g id="ytick_4">
	<g id="line2d_41">
		<g>
			<defs>
				<rect id="SVGID_00000141417976647370602060000002318478087894093744_" x="27" y="5.8" width="167.4" height="81.5"/>
			</defs>
			<clipPath id="SVGID_00000163031669269142520070000011423495680189251733_">
				<use xlink:href="#SVGID_00000141417976647370602060000002318478087894093744_"  style="overflow:visible;"/>
			</clipPath>
			
				<path style="clip-path:url(#SVGID_00000163031669269142520070000011423495680189251733_);fill:none;stroke:#B0B0B0;stroke-width:0.8;stroke-linecap:square;stroke-linejoin:round;" d="
				M27,22.4h167.4"/>
		</g>
	</g>
	<g id="line2d_42">
		<g>
			<g>
				<path id="m5272ac8657_00000075872228952800563240000016993055065423841459_" class="st3" d="M27,22.4h-3.5"/>
			</g>
		</g>
	</g>
	<g id="text_9">
		<g transform="translate(12 32.29921) scale(0.08 -0.08)">
			<g>
				<path id="FreeSerif-31_00000008845512979341954010000013175519377719696051_" d="M18.3,149.4c-1.2,0-3.6-0.7-7.2-2.2v1.4l18,9.1
					l0.8-0.2v-60c0-2.4,0.6-4,1.8-4.7c1.2-0.7,3.8-1.1,7.7-1.2v-1.5H11.8v1.5c3.7,0.1,6.3,0.7,7.5,1.6c1.3,1,2,3,2,6.2v45.3
					C21.3,147.8,20.3,149.4,18.3,149.4z"/>
			</g>
			<g>
				<path id="FreeSerif-35_00000168808074146821646010000012450699945772612266_" d="M85.7,109.5c0,3.5-0.8,6.7-2.4,9.4
					c-1.6,2.7-3.5,4.9-5.7,6.4c-2.2,1.5-4.7,2.7-7.5,3.7c-2.8,1-5.2,1.6-7.2,1.9s-3.8,0.5-5.4,0.5c-0.8,0-1.2,0.3-1.2,0.8
					c0,0.2,0,0.4,0.1,0.5l10.9,23.7h20.9c1.1,0,1.9,0.2,2.5,0.5c0.6,0.3,1.3,1,2.1,2.1l0.9-0.7l-3.8-8.9c-0.3-0.6-1-0.9-2.3-0.9
					H68.1l-4.2-8.5c9.7-1.7,17-4.5,21.7-8.5c4.7-3.9,7.1-9.6,7.1-17.1c0-3.9-0.6-7.4-1.9-10.5c-1.2-3.1-2.8-5.5-4.7-7.4
					c-1.9-1.9-4.1-3.4-6.6-4.6c-2.5-1.2-4.9-2-7.2-2.5c-2.3-0.4-4.6-0.7-6.9-0.7c-3.7,0-6.7,0.6-8.9,1.7c-2.2,1.1-3.3,2.6-3.3,4.5
					c0,2.5,1.4,3.7,4.3,3.7c1.9,0,4.3-1,7.2-3.1c3-2.1,5.3-3.1,7-3.1c3.9,0,7.2,1.7,9.9,5C84.4,100.6,85.7,104.7,85.7,109.5z"/>
			</g>
		</g>
	</g>
</g>
<g id="text_10">
	<g transform="translate(6.26375 100.654375) rotate(-90) scale(0.08 -0.08)">
		<g>
			<path id="FreeSerif-43" d="M43.6,32.5c0,10.4,3.2,18.8,9.6,25.3c6.4,6.5,14.4,9.8,23.9,9.8c4.3,0,8.3-0.6,12-1.7
				c3.7-1.1,5.9-1.6,6.5-1.6c2.2,0,3.6,1.1,4.2,3.3h2.1l0.9-22.6h-2.3C96.8,57.4,89.7,63.6,79,63.6c-7.3,0-13.1-2.7-17.4-8.1
				s-6.5-12.6-6.5-21.7c0-5.8,0.8-10.8,2.2-15c1.5-4.2,3.5-7.4,6-9.6C66,7,68.6,5.4,71.3,4.5C74,3.5,76.9,3,80,3
				c7.9,0,15.3,3.4,22.3,10.1l1.8-1.8c-3.1-4.1-7-7.2-11.7-9.4c-4.7-2.2-9.9-3.3-15.6-3.3c-9.9,0-17.9,3.1-24,9.3
				C46.7,14.1,43.6,22.3,43.6,32.5z"/>
		</g>
		<g>
			<path id="FreeSerif-6f_00000106849297488224189210000006044720079267293599_" d="M131.7,46c6.4,0,11.7-2.1,15.8-6.4
				c4.1-4.3,6.2-9.7,6.2-16.2c0-6.9-2.1-12.7-6.4-17.4c-4.3-4.7-9.5-7-15.8-7c-6.3,0-11.5,2.2-15.6,6.8s-6.2,10.1-6.2,16.8
				c0,6.9,2,12.5,6.1,16.9C119.8,43.8,125.1,46,131.7,46z M118.6,27.5c0-7.1,1.3-13.2,3.9-18.2c2.6-5,6-7.5,10.2-7.5
				c3.7,0,6.7,1.6,8.8,4.8c2.1,3.2,3.2,7.6,3.2,13.3c0,6.9-1.3,12.5-4,16.8c-2.7,4.3-6.1,6.5-10.3,6.5c-3.5,0-6.4-1.4-8.5-4.3
				C119.7,36,118.6,32.2,118.6,27.5z"/>
		</g>
		<g>
			<path id="FreeSerif-6d_00000077316837630937911570000002569171038814009219_" d="M156.5,39.8v1.7c4.8,1.3,9.5,2.8,14,4.5l0.7-0.2
				v-7.5c4.1,3.1,7.2,5.2,9.2,6.2s4.1,1.5,6.3,1.5c5.3,0,8.8-2.8,10.6-8.4c5.2,5.6,10.6,8.4,16.3,8.4c7.7,0,11.6-5.9,11.6-17.8V7.6
				c0-3.7,1.4-5.7,4.3-5.9l2.6-0.2V0h-21.9v1.5c2.9,0.3,4.8,0.9,5.5,1.7c0.7,0.8,1.1,2.6,1.1,5.5v21.1c0,4.1-0.5,7-1.6,8.6
				c-1.1,1.6-3,2.4-5.9,2.4c-4.4,0-8-2-10.9-6.1V9.5c0-3.1,0.5-5.2,1.4-6.3c1-1.1,2.9-1.6,5.8-1.7V0h-22.4v1.5
				c2.9,0.2,4.7,0.7,5.5,1.6c0.8,0.9,1.2,2.7,1.2,5.5v21.7c0,7-2.2,10.5-6.6,10.5c-1.9,0-3.9-0.5-6.2-1.4c-2.3-0.9-4.2-2.4-5.5-4.5
				V6.7c0-1.9,0.5-3.3,1.4-4c0.9-0.7,2.7-1.1,5.4-1.2V0h-22.2v1.5c2.8,0.1,4.7,0.6,5.6,1.5c0.9,0.9,1.4,2.8,1.4,5.5v25.3
				c0,2.4-0.2,4.1-0.8,5c-0.5,0.9-1.4,1.4-2.8,1.4C158.7,40.2,157.6,40.1,156.5,39.8z"/>
		</g>
		<g>
			<path id="FreeSerif-70_00000084492936867510834550000014827998100060707501_" d="M234.5,39.3v1.6c4.2,1.3,9,3,14.4,5.1l0.6-0.2
				v-7.7c4.3,5.3,9.1,7.9,14.4,7.9c4.9,0,8.9-2,12-6c3.1-4,4.7-9.1,4.7-15.3c0-7.3-2-13.4-6-18.3c-4-4.9-9-7.4-15-7.4
				c-2.1,0-3.9,0.3-5.4,0.9c-1.4,0.6-3,1.7-4.7,3.4v-15.7c0-3.1,0.5-5.1,1.6-6c1.1-0.9,3.5-1.4,7.2-1.5v-1.8h-24.2v1.7
				c2.9,0.3,4.8,0.8,5.7,1.7c0.9,0.9,1.3,2.6,1.3,5.2v46.8c0,2.3-0.3,3.9-0.8,4.6c-0.5,0.7-1.6,1.1-3.3,1.1
				C235.9,39.4,235.1,39.4,234.5,39.3z M249.5,33.4V8.8c0-1.5,1.1-2.9,3.4-4.4c2.3-1.5,4.6-2.2,7-2.2c3.6,0,6.5,1.7,8.8,5.1
				c2.2,3.4,3.4,7.9,3.4,13.5c0,5.8-1.1,10.5-3.4,14c-2.2,3.5-5.2,5.2-9,5.2c-2.3,0-4.6-0.7-6.8-2.2
				C250.6,36.3,249.5,34.9,249.5,33.4z"/>
		</g>
		<g>
			<path id="FreeSerif-75" d="M330.1,5V3.6c-5.2-1.4-9.8-2.9-13.7-4.5L316-0.7v8.3c-0.2-0.2-0.8-0.8-1.8-1.8c-1-1-1.6-1.7-2-2
				c-0.4-0.4-1.1-0.9-2-1.7c-1-0.8-1.8-1.3-2.5-1.6c-0.7-0.3-1.7-0.7-2.8-1c-1.1-0.3-2.3-0.5-3.4-0.5c-3.7,0-6.6,1.2-8.8,3.5
				c-2.2,2.4-3.3,5.5-3.3,9.5v25.2c0,2.3-0.4,3.9-1.3,4.8c-0.9,0.9-2.5,1.4-4.9,1.5V45h14.6V12.4c0-2.1,0.7-3.9,2.1-5.4
				c1.4-1.5,3.1-2.2,5-2.2c0.7,0,1.6,0.1,2.6,0.3c1,0.2,2.2,0.6,3.5,1.2c1.3,0.6,2.4,1.5,3.3,2.7c0.9,1.2,1.4,2.8,1.4,4.6V37
				c0,2.5-0.5,4.1-1.4,4.9c-0.9,0.8-2.9,1.3-6,1.4V45h15.8V10.7c0-2.3,0.4-3.9,1.1-4.6c0.7-0.7,2.3-1.1,4.6-1.1H330.1z"/>
		</g>
		<g>
			<path id="FreeSerif-74" d="M357,45v-3.2h-10.1V13.2c0-3.1,0.4-5.4,1.2-6.9c0.8-1.4,2.1-2.1,4-2.1c2.1,0,4.1,1.2,6,3.5l1.3-1.1
				c-3.2-5.1-7.2-7.6-12-7.6c-5.9,0-8.9,4.2-8.9,12.7v30.1h-5.3c-0.3,0.2-0.4,0.4-0.4,0.7c0,0.3,0.1,0.6,0.3,0.8s0.6,0.5,1.1,0.8
				c0.6,0.4,1.3,0.9,2.1,1.5c0.8,0.6,1.9,1.8,3.3,3.5s2.9,3.7,4.6,6c1.1,1.5,1.7,2.5,2,2.8c0.5,0,0.7-0.4,0.7-1.3V45H357z"/>
		</g>
		<g>
			<path id="FreeSerif-61_00000095303673748273586830000002817129439301522073_" d="M361.9,9.7c0,1.2,0.1,2.3,0.4,3.3
				c0.3,1,0.7,2,1.4,2.9c0.7,0.9,1.3,1.7,1.9,2.5c0.6,0.7,1.5,1.5,2.7,2.2c1.2,0.8,2.2,1.4,3,1.9c0.8,0.5,2,1.1,3.7,1.8
				c1.6,0.7,2.9,1.2,3.8,1.6s2.2,0.9,4.1,1.6c1.9,0.7,3.2,1.3,4.1,1.6v6.1c0,5.5-2.5,8.3-7.6,8.3c-2,0-3.7-0.5-5.1-1.5
				c-1.4-1-2.1-2.1-2.1-3.4c0-0.5,0.1-1.3,0.2-2.2s0.2-1.5,0.2-1.8c0-1.1-0.5-2.1-1.4-3c-0.9-0.8-1.9-1.2-3.1-1.2
				c-1.1,0-2.1,0.4-3,1.3s-1.3,1.9-1.3,3c0,3.1,1.6,5.8,4.8,8c3.2,2.2,7.2,3.2,12,3.2c5.5,0,9.2-1.3,11.3-4c2.1-2.6,3.1-6.7,3.1-12
				V10.5c0-2.2,0.2-3.7,0.7-4.5s1.2-1.2,2.3-1.2c1.4,0,2.9,0.6,4.4,1.9V4c-1.7-1.9-3.2-3.3-4.5-4s-2.8-1-4.5-1
				c-2.1,0-3.6,0.6-4.5,1.7s-1.6,3-1.9,5.6C381.2,1.4,376.4-1,372.4-1c-3.1,0-5.6,1-7.5,3S361.9,6.6,361.9,9.7z M386.9,12.3v14.5
				c-6-2.2-10.2-4.3-12.6-6.4c-2.4-2.1-3.6-4.6-3.6-7.5c0-2.7,0.7-4.8,2-6.1s2.8-2,4.3-2c2.3,0,4.7,0.8,7.3,2.3
				c1.1,0.6,1.8,1.2,2.1,1.9S386.9,10.8,386.9,12.3z"/>
		</g>
		<g>
			<path id="FreeSerif-74_00000042008297779882942730000005079649888169151911_" d="M427.8,45v-3.2h-10.1V13.2
				c0-3.1,0.4-5.4,1.2-6.9c0.8-1.4,2.1-2.1,4-2.1c2.1,0,4.1,1.2,6,3.5l1.3-1.1C427,1.5,423-1,418.2-1c-5.9,0-8.9,4.2-8.9,12.7v30.1
				H404c-0.3,0.2-0.4,0.4-0.4,0.7c0,0.3,0.1,0.6,0.3,0.8s0.6,0.5,1.1,0.8c0.6,0.4,1.3,0.9,2.1,1.5c0.8,0.6,1.9,1.8,3.3,3.5
				s2.9,3.7,4.6,6c1.1,1.5,1.7,2.5,2,2.8c0.5,0,0.7-0.4,0.7-1.3V45H427.8z"/>
		</g>
		<g>
			<path id="FreeSerif-69_00000029033700824951676480000006650209151016213639_" d="M436.4,39.3c-1.5,0-2.9-0.1-4.2-0.3v1.5
				c4.7,1.3,9.8,3.2,15.5,5.5l0.4-0.3V10.2c0-3.6,0.4-5.9,1.2-6.9c0.8-1,2.9-1.6,6.1-1.8V0h-23.7v1.5c3.5,0.2,5.7,0.8,6.5,1.8
				c0.9,1,1.4,3.3,1.4,6.9v23.2c0,2.2-0.2,3.7-0.8,4.6S437.6,39.3,436.4,39.3z M443,68.3c1.5,0,2.7-0.5,3.7-1.5s1.5-2.2,1.5-3.6
				c0-1.5-0.5-2.7-1.5-3.7s-2.2-1.5-3.7-1.5c-1.4,0-2.6,0.5-3.5,1.5s-1.5,2.2-1.5,3.6c0,1.4,0.5,2.6,1.5,3.6S441.6,68.3,443,68.3z"
				/>
		</g>
		<g>
			<path id="FreeSerif-6f_00000127014697748737970620000006681090387707004300_" d="M480.6,46c6.4,0,11.7-2.1,15.8-6.4
				c4.1-4.3,6.2-9.7,6.2-16.2c0-6.9-2.1-12.7-6.4-17.4c-4.3-4.7-9.5-7-15.8-7c-6.3,0-11.5,2.2-15.6,6.8s-6.2,10.1-6.2,16.8
				c0,6.9,2,12.5,6.1,16.9C468.7,43.8,474,46,480.6,46z M467.5,27.5c0-7.1,1.3-13.2,3.9-18.2c2.6-5,6-7.5,10.2-7.5
				c3.7,0,6.7,1.6,8.8,4.8c2.1,3.2,3.2,7.6,3.2,13.3c0,6.9-1.3,12.5-4,16.8s-6.1,6.5-10.3,6.5c-3.5,0-6.4-1.4-8.5-4.3
				C468.6,36,467.5,32.2,467.5,27.5z"/>
		</g>
		<g>
			<path id="FreeSerif-6e_00000088841518248407999100000012004659841099214509_" d="M505.1,39.8v1.7c4.9,1.5,9.5,3,13.8,4.5l0.7-0.2
				v-7.9c3.4,3.2,6.1,5.3,8,6.4c2,1.1,4.1,1.7,6.5,1.7c3.7,0,6.5-1.3,8.6-4c2.1-2.6,3.2-6.3,3.2-11V8.1c0-2.5,0.4-4.1,1.2-4.9
				s2.4-1.4,4.9-1.7V0h-20.8v1.5c2.5,0.2,4.2,0.9,5.1,2s1.2,3.3,1.2,6.4v20.9c0,6.5-2.4,9.7-7.3,9.7c-1.7,0-3.2-0.4-4.6-1.2
				c-1.4-0.8-3.3-2.3-5.7-4.5V6.7c0-1.8,0.5-3.1,1.4-3.8c0.9-0.7,2.7-1.2,5.2-1.4V0h-21.2v1.5c2.5,0.2,4.2,0.8,5,1.8
				s1.2,2.9,1.2,5.8v24.8c0,2.5-0.3,4.2-0.8,5c-0.5,0.9-1.5,1.4-2.9,1.4C506.5,40.2,505.6,40.1,505.1,39.8z"/>
		</g>
		<g>
			<path id="FreeSerif-20_00000142166216878717244520000011508401813529844631_" d="M553,0"/>
		</g>
		<g>
			<path id="FreeSerif-74_00000036961539545205341000000008542212859923687311_" d="M603.9,45v-3.2h-10.1V13.2
				c0-3.1,0.4-5.4,1.2-6.9c0.8-1.4,2.1-2.1,4-2.1c2.1,0,4.1,1.2,6,3.5l1.3-1.1c-3.2-5.1-7.2-7.6-12-7.6c-5.9,0-8.9,4.2-8.9,12.7
				v30.1h-5.3c-0.3,0.2-0.4,0.4-0.4,0.7c0,0.3,0.1,0.6,0.3,0.8s0.6,0.5,1.1,0.8c0.6,0.4,1.3,0.9,2.1,1.5c0.8,0.6,1.9,1.8,3.3,3.5
				s2.9,3.7,4.6,6c1.1,1.5,1.7,2.5,2,2.8c0.5,0,0.7-0.4,0.7-1.3V45H603.9z"/>
		</g>
		<g>
			<path id="FreeSerif-69_00000117671063215090776610000009696094757448588959_" d="M612.5,39.3c-1.5,0-2.9-0.1-4.2-0.3v1.5
				c4.7,1.3,9.8,3.2,15.5,5.5l0.4-0.3V10.2c0-3.6,0.4-5.9,1.2-6.9c0.8-1,2.9-1.6,6.1-1.8V0h-23.7v1.5c3.5,0.2,5.7,0.8,6.5,1.8
				c0.9,1,1.4,3.3,1.4,6.9v23.2c0,2.2-0.2,3.7-0.8,4.6S613.7,39.3,612.5,39.3z M619.1,68.3c1.5,0,2.7-0.5,3.7-1.5s1.5-2.2,1.5-3.6
				c0-1.5-0.5-2.7-1.5-3.7s-2.2-1.5-3.7-1.5c-1.4,0-2.6,0.5-3.5,1.5s-1.5,2.2-1.5,3.6c0,1.4,0.5,2.6,1.5,3.6S617.7,68.3,619.1,68.3z
				"/>
		</g>
		<g>
			<path id="FreeSerif-6d_00000102544220999391541210000001266005269474928804_" d="M634.4,39.8v1.7c4.8,1.3,9.5,2.8,14,4.5l0.7-0.2
				v-7.5c4.1,3.1,7.2,5.2,9.2,6.2s4.1,1.5,6.3,1.5c5.3,0,8.8-2.8,10.6-8.4c5.2,5.6,10.6,8.4,16.3,8.4c7.7,0,11.6-5.9,11.6-17.8V7.6
				c0-3.7,1.4-5.7,4.3-5.9l2.6-0.2V0h-21.9v1.5c2.9,0.3,4.8,0.9,5.5,1.7s1.1,2.6,1.1,5.5v21.1c0,4.1-0.5,7-1.6,8.6
				c-1.1,1.6-3,2.4-5.9,2.4c-4.4,0-8-2-10.9-6.1V9.5c0-3.1,0.5-5.2,1.4-6.3c1-1.1,2.9-1.6,5.8-1.7V0h-22.4v1.5
				c2.9,0.2,4.7,0.7,5.5,1.6c0.8,0.9,1.2,2.7,1.2,5.5v21.7c0,7-2.2,10.5-6.6,10.5c-1.9,0-3.9-0.5-6.2-1.4c-2.3-0.9-4.2-2.4-5.5-4.5
				V6.7c0-1.9,0.5-3.3,1.4-4c0.9-0.7,2.7-1.1,5.4-1.2V0h-22.2v1.5c2.8,0.1,4.7,0.6,5.6,1.5c0.9,0.9,1.4,2.8,1.4,5.5v25.3
				c0,2.4-0.2,4.1-0.8,5c-0.5,0.9-1.4,1.4-2.8,1.4C636.6,40.2,635.5,40.1,634.4,39.8z"/>
		</g>
		<g>
			<path id="FreeSerif-65_00000027579824139349687760000002996063014418244783_" d="M719.7,27.7c0.1-4.2,0.7-7.8,1.7-10.9
				c1-3,2.3-5.3,3.9-6.8c1.6-1.5,3.2-2.6,4.8-3.2c1.6-0.6,3.4-0.9,5.2-0.9c3.2,0,6,0.8,8.3,2.4c2.4,1.6,4.8,4.3,7.2,8.1l1.6-0.7
				c-2.1-5.4-4.9-9.5-8.6-12.4S735.9-1,731.2-1c-5.7,0-10.3,2-13.7,6s-5,9.5-5,16.4c0,7.4,1.9,13.3,5.8,17.8
				c3.9,4.5,8.9,6.7,15.1,6.7c5.1,0,9-1.5,11.8-4.5c2.8-3,4.6-7.6,5.3-13.8H719.7z M719.9,30.9h20.4c-0.7,4.3-1.7,7.3-3.1,9
				c-1.4,1.7-3.6,2.5-6.7,2.5C724.5,42.4,721,38.6,719.9,30.9z"/>
		</g>
		<g>
			<path id="FreeSerif-20_00000131325526889489256760000012739463502332131730_" d="M754.4,0"/>
		</g>
		<g>
			<path id="FreeSerif-28" d="M808.6-17.7c-1.7,1.1-3.5,2.4-5.4,3.9s-4,3.6-6.3,6.2s-4.4,5.5-6.2,8.5s-3.3,6.7-4.6,10.9
				c-1.2,4.3-1.8,8.7-1.8,13.3c0,4.8,0.6,9.3,1.8,13.6c1.2,4.3,2.7,7.9,4.4,10.7s3.8,5.6,6.3,8.2c2.6,2.6,4.7,4.6,6.4,5.8
				c1.7,1.3,3.6,2.6,5.8,4l0.9-1.6c-2.9-2.4-5.3-4.6-7.1-6.5s-3.5-4.5-5.2-7.6c-1.7-3.1-2.9-6.8-3.6-11.1c-0.7-4.3-1.1-9.4-1.1-15.3
				c0-6.2,0.4-11.5,1.1-16s1.9-8.3,3.6-11.5s3.4-5.8,5.2-7.8s4.2-4.1,7.1-6.4L808.6-17.7z"/>
		</g>
		<g>
			<path id="FreeSerif-6d_00000110458946420400819550000000782580989742407079_" d="M814,39.8v1.7c4.8,1.3,9.5,2.8,14,4.5l0.7-0.2
				v-7.5c4.1,3.1,7.2,5.2,9.2,6.2s4.1,1.5,6.3,1.5c5.3,0,8.8-2.8,10.6-8.4c5.2,5.6,10.6,8.4,16.3,8.4c7.7,0,11.6-5.9,11.6-17.8V7.6
				c0-3.7,1.4-5.7,4.3-5.9l2.6-0.2V0h-21.9v1.5c2.9,0.3,4.8,0.9,5.5,1.7s1.1,2.6,1.1,5.5v21.1c0,4.1-0.5,7-1.6,8.6
				c-1.1,1.6-3,2.4-5.9,2.4c-4.4,0-8-2-10.9-6.1V9.5c0-3.1,0.5-5.2,1.4-6.3c1-1.1,2.9-1.6,5.8-1.7V0h-22.4v1.5
				c2.9,0.2,4.7,0.7,5.5,1.6c0.8,0.9,1.2,2.7,1.2,5.5v21.7c0,7-2.2,10.5-6.6,10.5c-1.9,0-3.9-0.5-6.2-1.4c-2.3-0.9-4.2-2.4-5.5-4.5
				V6.7c0-1.9,0.5-3.3,1.4-4c0.9-0.7,2.7-1.1,5.4-1.2V0h-22.2v1.5c2.8,0.1,4.7,0.6,5.6,1.5c0.9,0.9,1.4,2.8,1.4,5.5v25.3
				c0,2.4-0.2,4.1-0.8,5c-0.5,0.9-1.4,1.4-2.8,1.4C816.2,40.2,815.1,40.1,814,39.8z"/>
		</g>
		<g>
			<path id="FreeSerif-73_00000011742072624739684390000014386982116265579137_" d="M916.4,44c0.1,0,0.6,0.3,1.6,1h1.1l0.4-13.6H918
				c-1.1,4.5-2.5,7.6-4.2,9.5c-1.7,1.9-3.9,2.8-6.8,2.8c-2.3,0-4.1-0.6-5.6-1.9c-1.4-1.3-2.1-2.9-2.1-4.9c0-2.9,1.4-5.1,4.3-6.8
				l10.8-6.4c3-1.8,5.2-3.6,6.5-5.5c1.3-1.8,2-4,2-6.5c0-3.5-1.4-6.5-4.2-9c-2.8-2.5-6.1-3.8-10-3.8c-1.7,0-3.9,0.3-6.7,0.9
				c-2.8,0.6-4.5,0.9-5.2,0.9c-1,0-1.8-0.4-2.3-1.2h-1.3v15.6h1.6c1.1-4.7,2.3-8,3.8-9.9c2.1-2.7,5.1-4.1,8.9-4.1
				c2.5,0,4.5,0.6,6,1.9c1.5,1.3,2.2,3.1,2.2,5.3c0,3-1.7,5.5-5.2,7.5l-5.8,3.3c-4.3,2.4-7.3,4.7-9.1,6.9c-1.8,2.2-2.6,4.7-2.6,7.5
				c0,3.6,1.3,6.6,3.8,8.9c2.6,2.3,5.8,3.5,9.8,3.5c2.2,0,4.3-0.3,6.2-1C914.8,44.3,916,44,916.4,44z"/>
		</g>
		<g>
			<path id="FreeSerif-29" d="M930.3,67.7c1.7-1.1,3.5-2.4,5.4-3.9c1.9-1.5,4-3.6,6.3-6.2s4.4-5.5,6.2-8.5c1.8-3,3.3-6.7,4.5-11
				c1.2-4.3,1.9-8.7,1.9-13.3c0-4.8-0.6-9.4-1.9-13.7c-1.2-4.3-2.7-7.9-4.3-10.7c-1.7-2.8-3.8-5.6-6.4-8.2c-2.6-2.6-4.7-4.6-6.3-5.8
				c-1.7-1.3-3.6-2.6-5.8-4l-0.9,1.6c2.9,2.4,5.3,4.6,7.1,6.5s3.5,4.5,5.2,7.6c1.7,3.1,2.9,6.8,3.6,11.1c0.7,4.3,1.1,9.4,1.1,15.4
				c0,6.2-0.4,11.5-1.1,16c-0.7,4.5-1.9,8.3-3.6,11.5c-1.7,3.2-3.4,5.8-5.2,7.8s-4.2,4.1-7.1,6.4L930.3,67.7z"/>
		</g>
		<g>
			<path id="FreeSerif-20_00000093880474475588190300000016087700260145036698_" d="M959.6,0"/>
		</g>
		<g>
			<path id="FreeSerif-2b" d="M1009.5,28.6v22h6.6v-22h21.9V22h-21.9V0h-6.6v22h-21.9v6.6H1009.5z"/>
		</g>
		<g>
			<path id="FreeSerif-2d" d="M1044.9,25.7h24.6v-6.3h-24.6V25.7z"/>
		</g>
		<g>
			<path id="FreeSerif-20_00000109716269897589618630000005029994724593976757_" d="M1074.3,0"/>
		</g>
		<g>
			<path id="FreeSerif-73_00000139974536065786520040000000018001795534764677_" d="M1126.1,44c0.1,0,0.6,0.3,1.6,1h1.1l0.4-13.6
				h-1.5c-1.1,4.5-2.5,7.6-4.2,9.5c-1.7,1.9-3.9,2.8-6.8,2.8c-2.3,0-4.1-0.6-5.6-1.9c-1.4-1.3-2.1-2.9-2.1-4.9
				c0-2.9,1.4-5.1,4.3-6.8l10.8-6.4c3-1.8,5.2-3.6,6.5-5.5c1.3-1.8,2-4,2-6.5c0-3.5-1.4-6.5-4.2-9c-2.8-2.5-6.1-3.8-10-3.8
				c-1.7,0-3.9,0.3-6.7,0.9c-2.8,0.6-4.5,0.9-5.2,0.9c-1,0-1.8-0.4-2.3-1.2h-1.3v15.6h1.6c1.1-4.7,2.3-8,3.8-9.9
				c2.1-2.7,5.1-4.1,8.9-4.1c2.5,0,4.5,0.6,6,1.9c1.5,1.3,2.2,3.1,2.2,5.3c0,3-1.7,5.5-5.2,7.5l-5.8,3.3c-4.3,2.4-7.3,4.7-9.1,6.9
				c-1.8,2.2-2.6,4.7-2.6,7.5c0,3.6,1.3,6.6,3.8,8.9c2.6,2.3,5.8,3.5,9.8,3.5c2.2,0,4.3-0.3,6.2-1C1124.5,44.3,1125.7,44,1126.1,44z
				"/>
		</g>
		<g>
			<path id="FreeSerif-74_00000106861197652275167360000007123716835248657843_" d="M1160.9,45v-3.2h-10.1V13.2
				c0-3.1,0.4-5.4,1.2-6.9c0.8-1.4,2.1-2.1,4-2.1c2.1,0,4.1,1.2,6,3.5l1.3-1.1c-3.2-5.1-7.2-7.6-12-7.6c-5.9,0-8.9,4.2-8.9,12.7
				v30.1h-5.3c-0.3,0.2-0.4,0.4-0.4,0.7c0,0.3,0.1,0.6,0.3,0.8c0.2,0.2,0.6,0.5,1.1,0.8c0.6,0.4,1.3,0.9,2.1,1.5
				c0.8,0.6,1.9,1.8,3.3,3.5c1.4,1.7,2.9,3.7,4.6,6c1.1,1.5,1.7,2.5,2,2.8c0.5,0,0.7-0.4,0.7-1.3V45H1160.9z"/>
		</g>
		<g>
			<path id="FreeSerif-64" d="M1197.5-1l-0.4,0.3v6.4c-3.2-4.5-7.5-6.7-12.8-6.7c-5.5,0-10,2-13.4,6c-3.4,4-5.1,9.2-5.1,15.5
				c0,7.1,2,13.1,6.1,18c4.1,5,9,7.5,14.7,7.5c3.6,0,7.1-1.4,10.5-4.3v15.6c0,2.1-0.3,3.4-0.9,4.1c-0.6,0.7-1.8,1-3.7,1
				c-0.9,0-1.7,0-2.2-0.1v1.6c6.1,1.6,11,3.1,14.7,4.4l0.5-0.2V11.4c0-2.3,0.3-3.9,0.8-4.6c0.6-0.7,1.8-1.1,3.5-1.1
				c0.3,0,1.1,0,2.3,0.1V4.2L1197.5-1z M1188.2,4.2c2.5,0,4.6,0.7,6.3,2.1c1.7,1.4,2.5,2.7,2.5,3.9v23c0,2.7-1,5-3.1,7
				c-2.1,2-4.4,3-7.1,3c-3.8,0-6.8-1.7-9.1-5.1c-2.3-3.4-3.4-7.9-3.4-13.6c0-6.1,1.3-11.1,3.8-14.7
				C1180.7,6.1,1184.1,4.2,1188.2,4.2z"/>
		</g>
	</g>
</g>
<g id="LineCollection_1">
	<g>
		<defs>
			<rect id="SVGID_00000099662980780144632650000003981734250786947970_" x="27" y="5.8" width="167.4" height="81.5"/>
		</defs>
		<clipPath id="SVGID_00000177463256436468917470000003811759343939768221_">
			<use xlink:href="#SVGID_00000099662980780144632650000003981734250786947970_"  style="overflow:visible;"/>
		</clipPath>
		
			<path style="clip-path:url(#SVGID_00000177463256436468917470000003811759343939768221_);fill:none;stroke:#1F77B4;stroke-width:1.5;stroke-linejoin:round;" d="
			M34.6,83.4v-0.1"/>
	</g>
	<g>
		<defs>
			<rect id="SVGID_00000179604843015922796580000018130991004975336089_" x="27" y="5.8" width="167.4" height="81.5"/>
		</defs>
		<clipPath id="SVGID_00000116921276238612659930000003280457488897684096_">
			<use xlink:href="#SVGID_00000179604843015922796580000018130991004975336089_"  style="overflow:visible;"/>
		</clipPath>
		
			<path style="clip-path:url(#SVGID_00000116921276238612659930000003280457488897684096_);fill:none;stroke:#1F77B4;stroke-width:1.5;stroke-linejoin:round;" d="
			M85.3,82.7L85.3,82.7"/>
	</g>
	<g>
		<defs>
			<rect id="SVGID_00000037694570198770280890000003605399644757585290_" x="27" y="5.8" width="167.4" height="81.5"/>
		</defs>
		<clipPath id="SVGID_00000028323167086500438110000007932447061156893111_">
			<use xlink:href="#SVGID_00000037694570198770280890000003605399644757585290_"  style="overflow:visible;"/>
		</clipPath>
		
			<path style="clip-path:url(#SVGID_00000028323167086500438110000007932447061156893111_);fill:none;stroke:#1F77B4;stroke-width:1.5;stroke-linejoin:round;" d="
			M136.1,76.3v-0.3"/>
	</g>
	<g>
		<defs>
			<rect id="SVGID_00000085955283151754228780000017651039504920773264_" x="27" y="5.8" width="167.4" height="81.5"/>
		</defs>
		<clipPath id="SVGID_00000118397112663386701580000006189171724888955071_">
			<use xlink:href="#SVGID_00000085955283151754228780000017651039504920773264_"  style="overflow:visible;"/>
		</clipPath>
		
			<path style="clip-path:url(#SVGID_00000118397112663386701580000006189171724888955071_);fill:none;stroke:#1F77B4;stroke-width:1.5;stroke-linejoin:round;" d="
			M186.8,11.8V9.5"/>
	</g>
</g>
<g id="LineCollection_2">
	<g>
		<defs>
			<rect id="SVGID_00000170965679262942504280000013176011760894913193_" x="27" y="5.8" width="167.4" height="81.5"/>
		</defs>
		<clipPath id="SVGID_00000032622392018312774930000002065497511647988124_">
			<use xlink:href="#SVGID_00000170965679262942504280000013176011760894913193_"  style="overflow:visible;"/>
		</clipPath>
		
			<path style="clip-path:url(#SVGID_00000032622392018312774930000002065497511647988124_);fill:none;stroke:#FF7F0E;stroke-width:1.5;stroke-linejoin:round;" d="
			M34.6,83.5L34.6,83.5"/>
	</g>
	<g>
		<defs>
			<rect id="SVGID_00000078733390586553943840000007764371428182748037_" x="27" y="5.8" width="167.4" height="81.5"/>
		</defs>
		<clipPath id="SVGID_00000025430400170232197590000005971194991075432099_">
			<use xlink:href="#SVGID_00000078733390586553943840000007764371428182748037_"  style="overflow:visible;"/>
		</clipPath>
		
			<path style="clip-path:url(#SVGID_00000025430400170232197590000005971194991075432099_);fill:none;stroke:#FF7F0E;stroke-width:1.5;stroke-linejoin:round;" d="
			M85.3,83.6L85.3,83.6"/>
	</g>
	<g>
		<defs>
			<rect id="SVGID_00000157269173478945803410000007335447573260309161_" x="27" y="5.8" width="167.4" height="81.5"/>
		</defs>
		<clipPath id="SVGID_00000173866679815720980270000004462025419410811044_">
			<use xlink:href="#SVGID_00000157269173478945803410000007335447573260309161_"  style="overflow:visible;"/>
		</clipPath>
		
			<path style="clip-path:url(#SVGID_00000173866679815720980270000004462025419410811044_);fill:none;stroke:#FF7F0E;stroke-width:1.5;stroke-linejoin:round;" d="
			M136.1,83.5L136.1,83.5"/>
	</g>
	<g>
		<defs>
			<rect id="SVGID_00000136382939631660209850000015280859176520939676_" x="27" y="5.8" width="167.4" height="81.5"/>
		</defs>
		<clipPath id="SVGID_00000084505770163776230400000012336196745706761883_">
			<use xlink:href="#SVGID_00000136382939631660209850000015280859176520939676_"  style="overflow:visible;"/>
		</clipPath>
		
			<path style="clip-path:url(#SVGID_00000084505770163776230400000012336196745706761883_);fill:none;stroke:#FF7F0E;stroke-width:1.5;stroke-linejoin:round;" d="
			M186.8,83.6L186.8,83.6"/>
	</g>
</g>
<g id="line2d_43">
	<g>
		<defs>
			<rect id="SVGID_00000011025912985883291700000008974396685563785388_" x="27" y="5.8" width="167.4" height="81.5"/>
		</defs>
		<clipPath id="SVGID_00000058548889856411071670000007579831461560258491_">
			<use xlink:href="#SVGID_00000011025912985883291700000008974396685563785388_"  style="overflow:visible;"/>
		</clipPath>
		
			<path style="clip-path:url(#SVGID_00000058548889856411071670000007579831461560258491_);fill:none;stroke:#1F77B4;stroke-width:1.5;stroke-linejoin:round;stroke-dasharray:9.6,2.4,1.5,2.4;" d="
			M34.6,83.4l50.7-0.6l50.7-6.6l50.7-65.5"/>
	</g>
	<g>
		<defs>
			<rect id="SVGID_00000079451366478721439390000013635311599749455035_" x="27" y="5.8" width="167.4" height="81.5"/>
		</defs>
		<clipPath id="SVGID_00000181766246142600036490000005002088476549221308_">
			<use xlink:href="#SVGID_00000079451366478721439390000013635311599749455035_"  style="overflow:visible;"/>
		</clipPath>
		<g style="clip-path:url(#SVGID_00000181766246142600036490000005002088476549221308_);">
			<g>
				<path id="m3fb9c8df6d" class="st22" d="M34.6,86.4c0.8,0,1.6-0.3,2.1-0.9c0.6-0.6,0.9-1.3,0.9-2.1s-0.3-1.6-0.9-2.1
					c-0.6-0.6-1.3-0.9-2.1-0.9s-1.6,0.3-2.1,0.9c-0.6,0.6-0.9,1.3-0.9,2.1s0.3,1.6,0.9,2.1C33.1,86,33.8,86.4,34.6,86.4z"/>
			</g>
			<g>
				<path id="m3fb9c8df6d_00000093175891153630700810000011022025050587366308_" class="st22" d="M85.3,85.7c0.8,0,1.6-0.3,2.1-0.9
					c0.6-0.6,0.9-1.3,0.9-2.1s-0.3-1.6-0.9-2.1c-0.6-0.6-1.3-0.9-2.1-0.9s-1.6,0.3-2.1,0.9c-0.6,0.6-0.9,1.3-0.9,2.1
					s0.3,1.6,0.9,2.1C83.8,85.4,84.5,85.7,85.3,85.7z"/>
			</g>
			<g>
				<path id="m3fb9c8df6d_00000080925591321535711630000015115807487229382332_" class="st22" d="M136.1,79.1c0.8,0,1.6-0.3,2.1-0.9
					c0.6-0.6,0.9-1.3,0.9-2.1s-0.3-1.6-0.9-2.1c-0.6-0.6-1.3-0.9-2.1-0.9s-1.6,0.3-2.1,0.9c-0.6,0.6-0.9,1.3-0.9,2.1
					s0.3,1.6,0.9,2.1C134.5,78.8,135.3,79.1,136.1,79.1z"/>
			</g>
			<g>
				<path id="m3fb9c8df6d_00000165199693656128356720000018352160399496460930_" class="st22" d="M186.8,13.6c0.8,0,1.6-0.3,2.1-0.9
					c0.6-0.6,0.9-1.3,0.9-2.1c0-0.8-0.3-1.6-0.9-2.1c-0.6-0.6-1.3-0.9-2.1-0.9s-1.6,0.3-2.1,0.9c-0.6,0.6-0.9,1.3-0.9,2.1
					c0,0.8,0.3,1.6,0.9,2.1C185.2,13.3,186,13.6,186.8,13.6z"/>
			</g>
		</g>
	</g>
</g>
<g id="line2d_44">
	<g>
		<defs>
			<rect id="SVGID_00000124156525979012244290000008461687733295962766_" x="27" y="5.8" width="167.4" height="81.5"/>
		</defs>
		<clipPath id="SVGID_00000163034113545376832560000006686745706808849070_">
			<use xlink:href="#SVGID_00000124156525979012244290000008461687733295962766_"  style="overflow:visible;"/>
		</clipPath>
		
			<path style="clip-path:url(#SVGID_00000163034113545376832560000006686745706808849070_);fill:none;stroke:#FF7F0E;stroke-width:1.5;stroke-linejoin:round;stroke-dasharray:9.6,2.4,1.5,2.4;" d="
			M34.6,83.5l50.7,0.1l50.7,0l50.7,0"/>
	</g>
	<g>
		<defs>
			<rect id="SVGID_00000026842606161838862050000008727179265726694037_" x="27" y="5.8" width="167.4" height="81.5"/>
		</defs>
		<clipPath id="SVGID_00000017503407592597641380000001658283547620816036_">
			<use xlink:href="#SVGID_00000026842606161838862050000008727179265726694037_"  style="overflow:visible;"/>
		</clipPath>
		<g style="clip-path:url(#SVGID_00000017503407592597641380000001658283547620816036_);">
			<g>
				<path id="mf24f8dad95" class="st25" d="M34.6,86.5c0.8,0,1.6-0.3,2.1-0.9c0.6-0.6,0.9-1.3,0.9-2.1s-0.3-1.6-0.9-2.1
					c-0.6-0.6-1.3-0.9-2.1-0.9s-1.6,0.3-2.1,0.9c-0.6,0.6-0.9,1.3-0.9,2.1s0.3,1.6,0.9,2.1C33.1,86.2,33.8,86.5,34.6,86.5z"/>
			</g>
			<g>
				<path id="mf24f8dad95_00000180351215696878449140000000538645849076550529_" class="st25" d="M85.3,86.6c0.8,0,1.6-0.3,2.1-0.9
					c0.6-0.6,0.9-1.3,0.9-2.1S88,82,87.5,81.4c-0.6-0.6-1.3-0.9-2.1-0.9s-1.6,0.3-2.1,0.9c-0.6,0.6-0.9,1.3-0.9,2.1s0.3,1.6,0.9,2.1
					C83.8,86.2,84.5,86.6,85.3,86.6z"/>
			</g>
			<g>
				<path id="mf24f8dad95_00000164471969511026939860000002946977603825807280_" class="st25" d="M136.1,86.5c0.8,0,1.6-0.3,2.1-0.9
					c0.6-0.6,0.9-1.3,0.9-2.1s-0.3-1.6-0.9-2.1c-0.6-0.6-1.3-0.9-2.1-0.9s-1.6,0.3-2.1,0.9c-0.6,0.6-0.9,1.3-0.9,2.1
					s0.3,1.6,0.9,2.1C134.5,86.2,135.3,86.5,136.1,86.5z"/>
			</g>
			<g>
				<path id="mf24f8dad95_00000160181976801475480050000000970994195589367979_" class="st25" d="M186.8,86.6c0.8,0,1.6-0.3,2.1-0.9
					c0.6-0.6,0.9-1.3,0.9-2.1s-0.3-1.6-0.9-2.1c-0.6-0.6-1.3-0.9-2.1-0.9s-1.6,0.3-2.1,0.9c-0.6,0.6-0.9,1.3-0.9,2.1
					s0.3,1.6,0.9,2.1C185.2,86.2,186,86.6,186.8,86.6z"/>
			</g>
		</g>
	</g>
</g>
<g id="patch_3">
	<path class="st26" d="M27,87.3V5.8"/>
</g>
<g id="patch_4">
	<path class="st26" d="M194.4,87.3V5.8"/>
</g>
<g id="patch_5">
	<path class="st26" d="M27,87.3h167.4"/>
</g>
<g id="patch_6">
	<path class="st26" d="M27,5.8h167.4"/>
</g>
<g id="legend_1">
	<g id="patch_7">
		<path class="st27" d="M32.6,34.8h82.1c1.1,0,1.6-0.5,1.6-1.6V11.4c0-1.1-0.5-1.6-1.6-1.6H32.6c-1.1,0-1.6,0.5-1.6,1.6v21.9
			C31,34.3,31.5,34.8,32.6,34.8z"/>
	</g>
	<g id="LineCollection_3">
		<path class="st28" d="M42.2,19.8v-8"/>
	</g>
	<g id="line2d_45">
		<path class="st29" d="M34.2,15.8h16"/>
	</g>
	<g id="line2d_46">
		<g>
			<g>
				<path id="m3fb9c8df6d_00000152244945259140539510000001046151921471483556_" class="st22" d="M42.2,18.8c0.8,0,1.6-0.3,2.1-0.9
					c0.6-0.6,0.9-1.3,0.9-2.1s-0.3-1.6-0.9-2.1c-0.6-0.6-1.3-0.9-2.1-0.9s-1.6,0.3-2.1,0.9c-0.6,0.6-0.9,1.3-0.9,2.1
					s0.3,1.6,0.9,2.1C40.6,18.4,41.4,18.8,42.2,18.8z"/>
			</g>
		</g>
	</g>
	<g id="text_11">
		<g transform="translate(56.6 25.76) scale(0.08 -0.08)">
			<g>
				<path id="FreeSerif-45" d="M20.4,98.1c0-1.9,0.5-3.1,1.6-3.6c1.1-0.5,4.1-0.7,8.9-0.7h2.7c7.1,0,12.2,0.8,15.3,2.5
					c3.1,1.7,5.8,5.2,8.3,10.7H60l-4.5-16.9h-54V92c3.7,0.3,6,0.9,7.1,2c1.1,1.1,1.6,3.4,1.6,7v44.4c0,3.5-0.5,5.8-1.6,7
					c-1.1,1.1-3.4,1.8-7.1,2v1.9h53.1l0.3-14.3h-2.5c-0.9,4.5-2.2,7.3-4,8.6c-1.8,1.3-5.5,1.9-11.2,1.9H23.7c-1.3,0-2.2-0.2-2.7-0.7
					c-0.4-0.4-0.6-1.4-0.6-2.8v-22.2h15.4c4.3,0,7,0.7,8.2,2c1.2,1.3,2.2,3.8,2.8,7.5h2.3v-23.2h-2.3c-0.7,4.1-1.6,6.8-2.9,7.9
					c-1.3,1.1-4,1.7-8.1,1.7H20.4V98.1z"/>
			</g>
			<g>
				<path id="FreeSerif-72" d="M91.1,126.3c-1,0-2.2,0.6-3.7,1.8c-1.5,1.2-2.4,1.8-2.9,1.8c-1.3,0-2.8-1-4.5-2.9
					c-1.7-1.9-2.5-3.7-2.5-5.3V99.1c0-2.9,0.6-4.8,1.7-5.8c1.1-1,3.4-1.6,6.8-1.7v-1.5H62v1.5c3.2,0.6,5.2,1.3,5.9,2
					c0.8,0.7,1.2,2.4,1.2,4.9v25c0,2.2-0.2,3.7-0.8,4.6c-0.5,0.9-1.4,1.4-2.6,1.4c-1.1,0-2.2-0.1-3.5-0.4v1.6
					c5.3,1.7,10.3,3.5,14.8,5.4l0.5-0.2v-9.2c2.5,3.5,4.6,6,6.3,7.4c1.7,1.4,3.6,2,5.7,2c1.7,0,3.1-0.5,4-1.4c1-0.9,1.5-2.2,1.5-3.9
					c0-1.4-0.3-2.5-1-3.3C93.3,126.7,92.3,126.3,91.1,126.3z"/>
			</g>
			<g>
				<path id="FreeSerif-67" d="M99.5,95.5c0,1.3,0.4,2.4,1.3,3.5c0.9,1.1,3.4,3.5,7.6,7.4c-3.3,1.7-5.7,3.5-7.2,5.6
					c-1.4,2.1-2.2,4.7-2.2,7.8c0,4.5,1.6,8.4,4.8,11.5c3.2,3.2,7.2,4.8,11.9,4.8c2.6,0,5.4-0.6,8.3-1.7c3-1.1,5.4-1.6,7.4-1.6h7.7
					v-3.9h-8.3c1.3-2.9,1.9-5.7,1.9-8.4c0-4.6-1.6-8.3-4.7-11.2c-3.1-2.9-6.7-4.3-10.9-4.3c-0.8,0-2.7,0.2-5.7,0.5
					c-1.3-0.4-2.7-1.3-4-2.7c-1.3-1.4-2-2.6-2-3.6c0-1.6,2.6-2.5,7.8-2.7l12.9-0.6c3.7-0.1,6.6-1.2,8.8-3.1c2.2-1.9,3.3-4.5,3.3-7.6
					c0-4.8-2.8-8.8-8.2-12c-5.5-3.2-11.4-4.9-17.8-4.9c-4.7,0-8.8,1-12.2,2.9C96.7,73,95,75.3,95,78c0,1.9,0.8,3.7,2.2,5.5
					c1.5,1.8,4,4,7.5,6.6c-2.1,1-3.5,1.9-4.2,2.6C99.9,93.5,99.5,94.4,99.5,95.5z M106.9,89.9c-2.1-2.5-3.4-4.2-4-5.3
					c-0.6-1.1-0.9-2.2-0.9-3.3c0-2.2,1.3-4,4-5.3c2.7-1.3,6.2-2,10.6-2c5.7,0,10.2,0.9,13.7,2.7c3.5,1.8,5.2,4.1,5.2,7
					c0,1.8-0.9,3.1-2.8,3.8c-1.9,0.7-5.1,1.1-9.6,1.1C116.4,88.6,111,89,106.9,89.9z M125.1,116.6c0,1.1-0.1,2.5-0.4,4.1
					c-0.3,1.6-0.7,3.4-1.4,5.5c-0.7,2-1.7,3.7-3.2,5.1c-1.5,1.4-3.2,2.1-5.3,2.1c-2.3,0-4.2-0.8-5.5-2.5c-1.3-1.7-1.9-4-1.9-6.9
					c0-5.7,1.1-9.9,3.2-12.5c2.1-2.6,4.5-3.9,7-3.9c2.3,0,4.2,0.8,5.5,2.4C124.4,111.6,125.1,113.8,125.1,116.6z"/>
			</g>
			<g>
				<path id="FreeSerif-2e" d="M152.7,100.1c1.5,0,2.8-0.6,3.9-1.7c1.1-1.1,1.7-2.5,1.7-4c0-1.5-0.6-2.7-1.7-3.8
					c-1.1-1.1-2.5-1.6-4-1.6c-1.5,0-2.7,0.5-3.8,1.6c-1.1,1.1-1.6,2.3-1.6,3.8c0,1.5,0.5,2.9,1.6,4
					C149.9,99.5,151.2,100.1,152.7,100.1z"/>
			</g>
			<g>
				<path id="FreeSerif-2d_00000152958408798946446700000015576181534268047526_" d="M169.1,115.8h24.6v-6.3h-24.6V115.8z"/>
			</g>
			<g>
				<path id="FreeSerif-4d" d="M266.2,147.4l-25.6-57.3h-1.4l-25.1,55v-40.3c0-5.1,0.6-8.4,1.8-10.1c1.2-1.6,3.7-2.5,7.6-2.7v-1.9
					H200V92c4.1,0.3,6.8,1.2,8,2.7c1.2,1.6,1.8,4.9,1.8,10.1v40.6c0,3.7-0.6,6-1.7,7c-1.1,1-3.7,1.7-7.8,2v1.9H220l23.1-50.5
					l22.1,50.5h19.9v-1.9c-3.7-0.3-6.1-1-7.1-2.1c-1-1.1-1.5-3.4-1.5-6.9V101c0-3.5,0.5-5.9,1.6-7c1.1-1.1,3.4-1.8,7.1-2v-1.9h-28
					V92c3.9,0.3,6.4,1,7.5,2.1c1.1,1.2,1.6,3.8,1.6,8V147.4z"/>
			</g>
			<g>
				<path id="FreeSerif-4d_00000093140703817238419930000002297623528168524189_" d="M354.3,147.4l-25.6-57.3h-1.4l-25.1,55v-40.3
					c0-5.1,0.6-8.4,1.8-10.1c1.2-1.6,3.7-2.5,7.6-2.7v-1.9h-23.5V92c4.1,0.3,6.8,1.2,8,2.7c1.2,1.6,1.8,4.9,1.8,10.1v40.6
					c0,3.7-0.6,6-1.7,7c-1.1,1-3.7,1.7-7.8,2v1.9h19.8l23.1-50.5l22.1,50.5h19.9v-1.9c-3.7-0.3-6.1-1-7.1-2.1
					c-1-1.1-1.5-3.4-1.5-6.9V101c0-3.5,0.5-5.9,1.6-7c1.1-1.1,3.4-1.8,7.1-2v-1.9h-28V92c3.9,0.3,6.4,1,7.5,2.1
					c1.1,1.2,1.6,3.8,1.6,8V147.4z"/>
			</g>
			<g>
				<path id="FreeSerif-44_00000010296165686826078960000015763519289138944136_" d="M443.1,123.5c0-3-0.3-5.9-1-8.8
					c-0.7-2.9-1.9-5.8-3.7-8.9c-1.8-3.1-4.1-5.7-6.9-7.9c-2.8-2.2-6.5-4.1-11.2-5.5c-4.6-1.5-9.9-2.2-15.7-2.2h-28.4V92
					c3.8,0.3,6.2,0.9,7.2,2c1,1.1,1.5,3.4,1.5,7v44.4c0,3.7-0.5,6-1.5,7c-1,1-3.4,1.7-7.3,2v1.9h27c6.1,0,11.5-0.7,16.2-2.1
					c4.8-1.4,8.6-3.1,11.5-5.3c2.9-2.2,5.3-4.7,7.2-7.7c1.9-3,3.2-5.9,3.9-8.8C442.8,129.6,443.1,126.6,443.1,123.5z M432.2,122.8
					c0,2.9-0.3,5.6-0.9,8.3c-0.6,2.6-1.6,5.3-3,8c-1.5,2.7-3.4,5-5.7,6.9c-2.3,1.9-5.4,3.5-9.2,4.8c-3.8,1.2-8.1,1.9-13,1.9
					c-2.1,0-3.5-0.3-4.2-0.8s-1-1.6-1-3.1V97.9c0-1.6,0.4-2.7,1.1-3.2c0.7-0.6,2.1-0.8,4.1-0.8C421.6,93.8,432.2,103.5,432.2,122.8z
					"/>
			</g>
			<g>
				<path id="FreeSerif-20_00000161594032430400545280000007026051988602890900_" d="M446.6,90.1"/>
			</g>
			<g>
				<path id="FreeSerif-28_00000171710959437904924410000005597096277931298479_" d="M500.8,72.4c-1.7,1.1-3.5,2.4-5.4,3.9
					s-4,3.6-6.3,6.2c-2.4,2.7-4.4,5.5-6.2,8.5c-1.8,3-3.3,6.7-4.6,10.9c-1.2,4.3-1.8,8.7-1.8,13.3c0,4.8,0.6,9.3,1.8,13.6
					c1.2,4.3,2.7,7.9,4.4,10.7c1.7,2.8,3.8,5.6,6.3,8.2c2.6,2.6,4.7,4.6,6.4,5.8c1.7,1.3,3.6,2.6,5.8,4l0.9-1.6
					c-2.9-2.4-5.3-4.6-7.1-6.5s-3.5-4.5-5.2-7.6c-1.7-3.1-2.9-6.8-3.6-11.1c-0.7-4.3-1.1-9.4-1.1-15.3c0-6.2,0.4-11.5,1.1-16
					c0.7-4.5,1.9-8.3,3.6-11.5c1.7-3.2,3.4-5.8,5.2-7.8s4.2-4.1,7.1-6.4L500.8,72.4z"/>
			</g>
			<g>
				<path id="FreeSerif-6f_00000152246350461202346170000000714330712089994918_" d="M529.5,136.1c6.4,0,11.7-2.1,15.8-6.4
					c4.1-4.3,6.2-9.7,6.2-16.2c0-6.9-2.1-12.7-6.4-17.4c-4.3-4.7-9.5-7-15.8-7c-6.3,0-11.5,2.2-15.6,6.8c-4.2,4.5-6.2,10.1-6.2,16.8
					c0,6.9,2,12.5,6.1,16.9C517.6,133.9,523,136.1,529.5,136.1z M516.4,117.6c0-7.1,1.3-13.2,3.9-18.2c2.6-5,6-7.5,10.2-7.5
					c3.7,0,6.7,1.6,8.8,4.8c2.1,3.2,3.2,7.6,3.2,13.3c0,6.9-1.3,12.5-4,16.8c-2.7,4.3-6.1,6.5-10.3,6.5c-3.5,0-6.4-1.4-8.5-4.3
					C517.5,126.1,516.4,122.3,516.4,117.6z"/>
			</g>
			<g>
				<path id="FreeSerif-75_00000013167387426963393740000007493111963595350178_" d="M601,95.1v-1.4c-5.2-1.4-9.8-2.9-13.7-4.5
					l-0.4,0.2v8.3c-0.2-0.2-0.8-0.8-1.8-1.8c-1-1-1.6-1.7-2-2c-0.4-0.4-1.1-0.9-2-1.7c-1-0.8-1.8-1.3-2.5-1.6
					c-0.7-0.3-1.7-0.7-2.8-1c-1.1-0.3-2.3-0.5-3.4-0.5c-3.7,0-6.6,1.2-8.8,3.5c-2.2,2.4-3.3,5.5-3.3,9.5v25.2c0,2.3-0.4,3.9-1.3,4.8
					c-0.9,0.9-2.5,1.4-4.9,1.5v1.4h14.6v-32.6c0-2.1,0.7-3.9,2.1-5.4c1.4-1.5,3.1-2.2,5-2.2c0.7,0,1.6,0.1,2.6,0.3
					c1,0.2,2.2,0.6,3.5,1.2s2.4,1.5,3.3,2.7c0.9,1.2,1.4,2.8,1.4,4.6v23.5c0,2.5-0.5,4.1-1.4,4.9c-0.9,0.8-2.9,1.3-6,1.4v1.7h15.8
					v-34.3c0-2.3,0.4-3.9,1.1-4.6c0.7-0.7,2.3-1.1,4.6-1.1H601z"/>
			</g>
			<g>
				<path id="FreeSerif-72_00000035517727704583603480000006925825235825196442_" d="M632.1,126.3c-1,0-2.2,0.6-3.7,1.8
					c-1.5,1.2-2.4,1.8-2.9,1.8c-1.3,0-2.8-1-4.5-2.9c-1.7-1.9-2.5-3.7-2.5-5.3V99.1c0-2.9,0.6-4.8,1.7-5.8s3.4-1.6,6.8-1.7v-1.5h-24
					v1.5c3.2,0.6,5.2,1.3,5.9,2c0.8,0.7,1.2,2.4,1.2,4.9v25c0,2.2-0.2,3.7-0.8,4.6c-0.5,0.9-1.4,1.4-2.6,1.4c-1.1,0-2.2-0.1-3.5-0.4
					v1.6c5.3,1.7,10.3,3.5,14.8,5.4l0.5-0.2v-9.2c2.5,3.5,4.6,6,6.3,7.4c1.7,1.4,3.6,2,5.7,2c1.7,0,3.1-0.5,4-1.4
					c1-0.9,1.5-2.2,1.5-3.9c0-1.4-0.3-2.5-1-3.3C634.3,126.7,633.3,126.3,632.1,126.3z"/>
			</g>
			<g>
				<path id="FreeSerif-73_00000063610432754604331990000011498165904472402861_" d="M663.3,134.1c0.1,0,0.6,0.3,1.6,1h1.1l0.4-13.6
					h-1.5c-1.1,4.5-2.5,7.6-4.2,9.5c-1.7,1.9-3.9,2.8-6.8,2.8c-2.3,0-4.1-0.6-5.6-1.9c-1.4-1.3-2.1-2.9-2.1-4.9
					c0-2.9,1.4-5.1,4.3-6.8l10.8-6.4c3-1.8,5.2-3.6,6.5-5.5s2-4,2-6.5c0-3.5-1.4-6.5-4.2-9c-2.8-2.5-6.1-3.8-10-3.8
					c-1.7,0-3.9,0.3-6.7,0.9c-2.8,0.6-4.5,0.9-5.2,0.9c-1,0-1.8-0.4-2.3-1.2h-1.3v15.6h1.6c1.1-4.7,2.3-8,3.8-9.9
					c2.1-2.7,5.1-4.1,8.9-4.1c2.5,0,4.5,0.6,6,1.9c1.5,1.3,2.2,3.1,2.2,5.3c0,3-1.7,5.5-5.2,7.5l-5.8,3.3c-4.3,2.4-7.3,4.7-9.1,6.9
					c-1.8,2.2-2.6,4.7-2.6,7.5c0,3.6,1.3,6.6,3.8,8.9c2.6,2.3,5.8,3.5,9.8,3.5c2.2,0,4.3-0.3,6.2-1
					C661.7,134.4,662.9,134.1,663.3,134.1z"/>
			</g>
			<g>
				<path id="FreeSerif-29_00000147181639489752655560000004117830736570073244_" d="M677.2,157.8c1.7-1.1,3.5-2.4,5.4-3.9
					s4-3.6,6.3-6.2c2.4-2.7,4.4-5.5,6.2-8.5c1.8-3,3.3-6.7,4.5-11c1.2-4.3,1.9-8.7,1.9-13.3c0-4.8-0.6-9.4-1.9-13.7
					c-1.2-4.3-2.7-7.9-4.3-10.7c-1.7-2.8-3.8-5.6-6.4-8.2c-2.6-2.6-4.7-4.6-6.3-5.8c-1.7-1.3-3.6-2.6-5.8-4l-0.9,1.6
					c2.9,2.4,5.3,4.6,7.1,6.5s3.5,4.5,5.2,7.6c1.7,3.1,2.9,6.8,3.6,11.1c0.7,4.3,1.1,9.4,1.1,15.4c0,6.2-0.4,11.5-1.1,16
					c-0.7,4.5-1.9,8.3-3.6,11.5c-1.7,3.2-3.4,5.8-5.2,7.8s-4.2,4.1-7.1,6.4L677.2,157.8z"/>
			</g>
		</g>
	</g>
	<g id="LineCollection_4">
		<path class="st30" d="M42.2,31.1v-8"/>
	</g>
	<g id="line2d_47">
		<path class="st31" d="M34.2,27.1h16"/>
	</g>
	<g id="line2d_48">
		<g>
			<g>
				<path id="mf24f8dad95_00000140722644014889885660000013306078186897297327_" class="st25" d="M42.2,30.1c0.8,0,1.6-0.3,2.1-0.9
					c0.6-0.6,0.9-1.3,0.9-2.1c0-0.8-0.3-1.6-0.9-2.1c-0.6-0.6-1.3-0.9-2.1-0.9s-1.6,0.3-2.1,0.9c-0.6,0.6-0.9,1.3-0.9,2.1
					c0,0.8,0.3,1.6,0.9,2.1C40.6,29.8,41.4,30.1,42.2,30.1z"/>
			</g>
		</g>
	</g>
	<g id="text_12">
		<g transform="translate(56.6 37.10375) scale(0.08 -0.08)">
			<g>
				<path id="FreeSerif-46" d="M48.2,113.2h-2.3c-0.6,4.1-1.6,6.7-2.9,7.9s-4,1.8-8.1,1.8H20.4V102c0-4.1,0.5-6.7,1.6-7.9
					c1.1-1.2,3.6-1.9,7.5-2.1v-1.9h-28V92c3.8,0.3,6.2,1,7.2,2.1s1.5,3.8,1.5,8v43.3c0,3.5-0.5,5.8-1.6,7c-1.1,1.1-3.4,1.8-7.1,2
					v1.9h53.1l0.3-14.3h-2.5c-0.9,4.5-2.2,7.3-4,8.6c-1.8,1.3-5.5,1.9-11.2,1.9H23.6c-1.3,0-2.2-0.2-2.6-0.7s-0.6-1.4-0.6-2.8v-22.2
					h14.5c4,0,6.7,0.6,8,1.7c1.4,1.2,2.3,3.8,3,7.8h2.3V113.2z"/>
			</g>
			<g>
				<path id="FreeSerif-61_00000089544930000792865320000013559555306881794472_" d="M56.9,99.8c0,1.2,0.1,2.3,0.4,3.3
					c0.3,1,0.7,2,1.4,2.9c0.7,0.9,1.3,1.7,1.9,2.5c0.6,0.7,1.5,1.5,2.7,2.2c1.2,0.8,2.2,1.4,3,1.9c0.8,0.5,2,1.1,3.7,1.8
					c1.6,0.7,2.9,1.2,3.8,1.6c0.9,0.4,2.2,0.9,4.1,1.6c1.9,0.7,3.2,1.3,4.1,1.6v6.1c0,5.5-2.5,8.3-7.6,8.3c-2,0-3.7-0.5-5.1-1.5
					c-1.4-1-2.1-2.1-2.1-3.4c0-0.5,0.1-1.3,0.2-2.2c0.2-0.9,0.2-1.5,0.2-1.8c0-1.1-0.5-2.1-1.4-3c-0.9-0.8-1.9-1.2-3.1-1.2
					c-1.1,0-2.1,0.4-3,1.3c-0.9,0.9-1.3,1.9-1.3,3c0,3.1,1.6,5.8,4.8,8c3.2,2.2,7.2,3.2,12,3.2c5.5,0,9.2-1.3,11.3-4
					c2.1-2.6,3.1-6.7,3.1-12v-19.5c0-2.2,0.2-3.7,0.7-4.5s1.2-1.2,2.3-1.2c1.4,0,2.9,0.6,4.4,1.9v-2.6c-1.7-1.9-3.2-3.3-4.5-4
					c-1.3-0.7-2.8-1-4.5-1c-2.1,0-3.6,0.6-4.5,1.7s-1.6,3-1.9,5.6c-5.7-4.9-10.6-7.3-14.6-7.3c-3.1,0-5.6,1-7.5,3
					S56.9,96.7,56.9,99.8z M81.9,102.4v14.5c-6-2.2-10.2-4.3-12.6-6.4c-2.4-2.1-3.6-4.6-3.6-7.5c0-2.7,0.7-4.8,2-6.1
					c1.3-1.3,2.8-2,4.3-2c2.3,0,4.7,0.8,7.3,2.3c1.1,0.6,1.8,1.2,2.1,1.9C81.7,99.8,81.9,100.9,81.9,102.4z"/>
			</g>
			<g>
				<path id="FreeSerif-73_00000096038905216214393330000007869123635792243588_" d="M124.7,134.1c0.1,0,0.6,0.3,1.6,1h1.1l0.4-13.6
					h-1.5c-1.1,4.5-2.5,7.6-4.2,9.5c-1.7,1.9-3.9,2.8-6.8,2.8c-2.3,0-4.1-0.6-5.6-1.9c-1.4-1.3-2.1-2.9-2.1-4.9
					c0-2.9,1.4-5.1,4.3-6.8l10.8-6.4c3-1.8,5.2-3.6,6.5-5.5s2-4,2-6.5c0-3.5-1.4-6.5-4.2-9c-2.8-2.5-6.1-3.8-10-3.8
					c-1.7,0-3.9,0.3-6.7,0.9c-2.8,0.6-4.5,0.9-5.2,0.9c-1,0-1.8-0.4-2.3-1.2h-1.3v15.6h1.6c1.1-4.7,2.3-8,3.8-9.9
					c2.1-2.7,5.1-4.1,8.9-4.1c2.5,0,4.5,0.6,6,1.9c1.5,1.3,2.2,3.1,2.2,5.3c0,3-1.7,5.5-5.2,7.5l-5.8,3.3c-4.3,2.4-7.3,4.7-9.1,6.9
					c-1.8,2.2-2.6,4.7-2.6,7.5c0,3.6,1.3,6.6,3.8,8.9c2.6,2.3,5.8,3.5,9.8,3.5c2.2,0,4.3-0.3,6.2-1
					C123.1,134.4,124.3,134.1,124.7,134.1z"/>
			</g>
			<g>
				<path id="FreeSerif-74_00000167358556191202675750000014523917199862344854_" d="M159.5,135.1v-3.2h-10.1v-28.6
					c0-3.1,0.4-5.4,1.2-6.9c0.8-1.4,2.1-2.1,4-2.1c2.1,0,4.1,1.2,6,3.5l1.3-1.1c-3.2-5.1-7.2-7.6-12-7.6c-5.9,0-8.9,4.2-8.9,12.7
					v30.1h-5.3c-0.3,0.2-0.4,0.4-0.4,0.7c0,0.3,0.1,0.6,0.3,0.8c0.2,0.2,0.6,0.5,1.1,0.8c0.6,0.4,1.3,0.9,2.1,1.5
					c0.8,0.6,1.9,1.8,3.3,3.5c1.4,1.7,2.9,3.7,4.6,6c1.1,1.5,1.7,2.5,2,2.8c0.5,0,0.7-0.4,0.7-1.3v-11.6H159.5z"/>
			</g>
			<g>
				<path id="FreeSerif-20_00000126324991211323509660000010355431901313499045_" d="M161.9,90.1"/>
			</g>
			<g>
				<path id="FreeSerif-45_00000153673606844544201030000001941968816130004380_" d="M207.3,98.1c0-1.9,0.5-3.1,1.6-3.6
					c1.1-0.5,4.1-0.7,8.9-0.7h2.7c7.1,0,12.2,0.8,15.3,2.5c3.1,1.7,5.8,5.2,8.3,10.7h2.8l-4.5-16.9h-54V92c3.7,0.3,6,0.9,7.1,2
					c1.1,1.1,1.6,3.4,1.6,7v44.4c0,3.5-0.5,5.8-1.6,7c-1.1,1.1-3.4,1.8-7.1,2v1.9h53.1l0.3-14.3h-2.5c-0.9,4.5-2.2,7.3-4,8.6
					c-1.8,1.3-5.5,1.9-11.2,1.9h-13.5c-1.3,0-2.2-0.2-2.7-0.7c-0.4-0.4-0.6-1.4-0.6-2.8v-22.2h15.4c4.3,0,7,0.7,8.2,2
					c1.2,1.3,2.2,3.8,2.8,7.5h2.3v-23.2h-2.3c-0.7,4.1-1.6,6.8-2.9,7.9c-1.3,1.1-4,1.7-8.1,1.7h-15.4V98.1z"/>
			</g>
			<g>
				<path id="FreeSerif-72_00000097477735651892418770000003339075822259213193_" d="M278,126.3c-1,0-2.2,0.6-3.7,1.7
					c-1.5,1.2-2.4,1.8-2.9,1.8c-1.3,0-2.8-1-4.5-2.9c-1.7-1.9-2.5-3.7-2.5-5.3V99.1c0-2.9,0.6-4.8,1.7-5.8s3.4-1.6,6.8-1.7v-1.5h-24
					v1.5c3.2,0.6,5.2,1.3,5.9,2c0.8,0.7,1.2,2.4,1.2,4.9v25c0,2.2-0.2,3.7-0.8,4.6c-0.5,0.9-1.4,1.4-2.6,1.4c-1.1,0-2.2-0.1-3.5-0.4
					v1.6c5.3,1.7,10.3,3.5,14.8,5.4l0.5-0.2v-9.2c2.5,3.5,4.6,6,6.3,7.4c1.7,1.4,3.6,2,5.7,2c1.7,0,3.1-0.5,4-1.4
					c1-0.9,1.5-2.2,1.5-3.9c0-1.4-0.3-2.5-1-3.3C280.2,126.7,279.2,126.3,278,126.3z"/>
			</g>
			<g>
				<path id="FreeSerif-67_00000082343972357408148910000002224479862490926772_" d="M286.4,95.5c0,1.3,0.4,2.4,1.3,3.5
					c0.9,1.1,3.4,3.5,7.6,7.4c-3.3,1.7-5.7,3.5-7.2,5.6c-1.4,2.1-2.2,4.7-2.2,7.8c0,4.5,1.6,8.4,4.8,11.5c3.2,3.2,7.2,4.8,11.9,4.8
					c2.6,0,5.4-0.6,8.3-1.7c3-1.1,5.4-1.6,7.4-1.6h7.7v-3.9h-8.3c1.3-2.9,1.9-5.7,1.9-8.4c0-4.6-1.6-8.3-4.7-11.2
					c-3.1-2.9-6.7-4.3-10.9-4.3c-0.8,0-2.7,0.2-5.7,0.5c-1.3-0.4-2.7-1.3-4-2.7c-1.3-1.4-2-2.6-2-3.6c0-1.6,2.6-2.5,7.8-2.7
					l12.9-0.6c3.7-0.1,6.6-1.2,8.8-3.1c2.2-1.9,3.3-4.5,3.3-7.6c0-4.8-2.8-8.8-8.2-12c-5.5-3.2-11.4-4.9-17.8-4.9
					c-4.7,0-8.8,1-12.2,2.9c-3.4,1.9-5.1,4.2-5.1,6.8c0,1.9,0.8,3.7,2.2,5.5s4,4,7.5,6.6c-2.1,1-3.5,1.9-4.2,2.6
					C286.8,93.5,286.4,94.4,286.4,95.5z M293.8,89.9c-2.1-2.5-3.4-4.2-4-5.3c-0.6-1.1-0.9-2.2-0.9-3.3c0-2.2,1.3-4,4-5.3
					s6.2-2,10.6-2c5.7,0,10.2,0.9,13.7,2.7c3.5,1.8,5.2,4.1,5.2,7c0,1.8-0.9,3.1-2.8,3.8c-1.9,0.7-5.1,1.1-9.6,1.1
					C303.3,88.6,297.9,89,293.8,89.9z M312,116.6c0,1.1-0.1,2.5-0.4,4.1c-0.3,1.6-0.7,3.4-1.4,5.5c-0.7,2-1.7,3.7-3.2,5.1
					c-1.5,1.4-3.2,2.1-5.3,2.1c-2.3,0-4.2-0.8-5.5-2.5c-1.3-1.7-1.9-4-1.9-6.9c0-5.7,1.1-9.9,3.2-12.5c2.1-2.6,4.5-3.9,7-3.9
					c2.3,0,4.2,0.8,5.5,2.4C311.3,111.6,312,113.8,312,116.6z"/>
			</g>
			<g>
				<path id="FreeSerif-2e_00000181060686955558009590000014337999481211030674_" d="M339.6,100.1c1.5,0,2.8-0.6,3.9-1.7
					c1.1-1.1,1.7-2.5,1.7-4c0-1.5-0.6-2.7-1.7-3.8c-1.1-1.1-2.5-1.6-4-1.6c-1.5,0-2.7,0.5-3.8,1.6c-1.1,1.1-1.6,2.3-1.6,3.8
					c0,1.5,0.5,2.9,1.6,4C336.8,99.5,338.1,100.1,339.6,100.1z"/>
			</g>
			<g>
				<path id="FreeSerif-20_00000009570788612165194240000009608144445283881884_" d="M352.1,90.1"/>
			</g>
			<g>
				<path id="FreeSerif-4b" d="M416.5,154.4v1.9h26.2v-1.9c-3.5-0.3-6-0.8-7.8-1.6c-1.7-0.8-4.2-2.9-7.4-6.2l-19-18.8l23.3-25
					c4.5-4.9,7.6-7.9,9.3-9c1.7-1.1,3.8-1.7,6.4-1.8v-1.9H417V92c0.2,0,0.6,0,1.2,0c0.6,0,1.1,0.1,1.4,0.1s0.8,0.1,1.2,0.1
					c0.5,0.1,0.9,0.2,1.2,0.2c0.3,0.1,0.7,0.2,1,0.4s0.5,0.4,0.7,0.6c0.2,0.2,0.2,0.5,0.2,0.8c0,1.2-1.2,3.4-3.7,6.6
					s-5.6,6.7-9.3,10.4l-10.6,10.5l-2.6-2.1V101c0-3.7,0.5-6,1.5-7.1c1-1,3.5-1.7,7.5-1.9v-1.9h-28.2V92c3.9,0.3,6.4,1,7.5,2.1
					s1.5,3.8,1.5,8v43.3c0,3.5-0.5,5.8-1.6,7c-1.1,1.1-3.5,1.8-7.4,2v1.9H407v-1.9c-4.1-0.3-6.6-0.9-7.7-2c-1-1-1.5-3.4-1.5-7v-20.5
					l17.7,16.1c5.2,4.8,7.8,8.2,7.8,10.3c0,1-0.3,1.7-1,2.1c-0.6,0.4-1.7,0.7-3.2,0.9C418.2,154.3,417.3,154.3,416.5,154.4z"/>
			</g>
			<g>
				<path id="FreeSerif-65_00000109710115751917491920000006969562557533839013_" d="M455.7,117.8c0.1-4.2,0.7-7.8,1.7-10.9
					c1-3,2.3-5.3,3.9-6.8c1.6-1.5,3.2-2.6,4.8-3.2c1.6-0.6,3.4-0.9,5.2-0.9c3.2,0,6,0.8,8.3,2.4c2.4,1.6,4.8,4.3,7.2,8.1l1.6-0.7
					c-2.1-5.4-4.9-9.5-8.6-12.4s-7.9-4.3-12.6-4.3c-5.7,0-10.3,2-13.7,6s-5,9.5-5,16.4c0,7.4,1.9,13.3,5.8,17.8
					c3.9,4.5,8.9,6.8,15.1,6.8c5.1,0,9-1.5,11.8-4.5c2.8-3,4.6-7.6,5.3-13.7H455.7z M455.9,121h20.4c-0.7,4.3-1.7,7.3-3.1,9
					c-1.4,1.7-3.6,2.5-6.7,2.5C460.5,132.5,457,128.7,455.9,121z"/>
			</g>
			<g>
				<path id="FreeSerif-72_00000123426815802251565760000011730791396821827234_" d="M519.5,126.3c-1,0-2.2,0.6-3.7,1.7
					c-1.5,1.2-2.4,1.8-2.9,1.8c-1.3,0-2.8-1-4.5-2.9c-1.7-1.9-2.5-3.7-2.5-5.3V99.1c0-2.9,0.6-4.8,1.7-5.8s3.4-1.6,6.8-1.7v-1.5h-24
					v1.5c3.2,0.6,5.2,1.3,5.9,2c0.8,0.7,1.2,2.4,1.2,4.9v25c0,2.2-0.2,3.7-0.8,4.6c-0.5,0.9-1.4,1.4-2.6,1.4c-1.1,0-2.2-0.1-3.5-0.4
					v1.6c5.3,1.7,10.3,3.5,14.8,5.4l0.5-0.2v-9.2c2.5,3.5,4.6,6,6.3,7.4c1.7,1.4,3.6,2,5.7,2c1.7,0,3.1-0.5,4-1.4
					c1-0.9,1.5-2.2,1.5-3.9c0-1.4-0.3-2.5-1-3.3C521.7,126.7,520.7,126.3,519.5,126.3z"/>
			</g>
			<g>
				<path id="FreeSerif-6e_00000003798918271016155870000004783672470697941174_" d="M524.9,129.9v1.7c4.9,1.5,9.5,3,13.8,4.5
					l0.7-0.2V128c3.4,3.2,6.1,5.3,8,6.4c2,1.1,4.1,1.7,6.5,1.7c3.7,0,6.5-1.3,8.6-4c2.1-2.6,3.2-6.3,3.2-11V98.2
					c0-2.5,0.4-4.1,1.2-4.9s2.4-1.4,4.9-1.7v-1.5H551v1.5c2.5,0.2,4.2,0.9,5.1,2s1.2,3.3,1.2,6.4v20.9c0,6.5-2.4,9.7-7.3,9.7
					c-1.7,0-3.2-0.4-4.6-1.2c-1.4-0.8-3.3-2.3-5.7-4.5V96.8c0-1.8,0.5-3.1,1.4-3.8c0.9-0.7,2.7-1.2,5.2-1.4v-1.5h-21.2v1.5
					c2.5,0.2,4.2,0.8,5,1.8s1.2,2.9,1.2,5.8v24.8c0,2.5-0.3,4.2-0.8,5c-0.5,0.9-1.5,1.4-2.9,1.4
					C526.3,130.3,525.4,130.2,524.9,129.9z"/>
			</g>
			<g>
				<path id="FreeSerif-65_00000057148492937166330820000015634015593139158415_" d="M581.5,117.8c0.1-4.2,0.7-7.8,1.7-10.9
					c1-3,2.3-5.3,3.9-6.8c1.6-1.5,3.2-2.6,4.8-3.2c1.6-0.6,3.4-0.9,5.2-0.9c3.2,0,6,0.8,8.3,2.4c2.4,1.6,4.8,4.3,7.2,8.1l1.6-0.7
					c-2.1-5.4-4.9-9.5-8.6-12.4s-7.9-4.3-12.6-4.3c-5.7,0-10.3,2-13.7,6s-5,9.5-5,16.4c0,7.4,1.9,13.3,5.8,17.8
					c3.9,4.5,8.9,6.8,15.1,6.8c5.1,0,9-1.5,11.8-4.5s4.6-7.6,5.3-13.7H581.5z M581.7,121h20.4c-0.7,4.3-1.7,7.3-3.1,9
					c-1.4,1.7-3.6,2.5-6.7,2.5C586.3,132.5,582.8,128.7,581.7,121z"/>
			</g>
			<g>
				<path id="FreeSerif-6c_00000037660219636433276800000014234269756776477320_" d="M615.2,152.4v1.6c6.6,1.6,11.9,3.1,15.9,4.4
					l0.4-0.2V98.5c0-2.7,0.4-4.5,1.3-5.4c0.9-0.8,3-1.3,6.2-1.5v-1.5h-23.6v1.5c3.1,0.3,5.2,0.9,6.2,1.8c1,0.9,1.5,2.7,1.5,5.4v47.7
					c0,2.3-0.3,3.9-0.9,4.8c-0.6,0.9-1.7,1.3-3.3,1.3C617.6,152.6,616.3,152.5,615.2,152.4z"/>
			</g>
		</g>
	</g>
</g>
</svg>
